<?xml version="1.0" encoding="UTF-8"?>
<svg id="_레이어_1" data-name="레이어_1" xmlns="http://www.w3.org/2000/svg" version="1.1" viewBox="0 0 537.03 537.03">
  <!-- Generator: Adobe Illustrator 30.0.0, SVG Export Plug-In . SVG Version: 2.1.1 Build 123)  -->
  <defs>
    <style>
      .st0, .st1, .st2, .st3, .st4, .st5 {
        font-weight: 500;
      }

      .st0, .st2 {
        font-family: Freesentation-5Medium, Freesentation;
      }

      .st0, .st6 {
        font-size: 11px;
      }

      .st7 {
        font-family: Freesentation-9Black, Freesentation;
        font-size: 32.17px;
        font-weight: 800;
      }

      .st7, .st8, .st1, .st3, .st9, .st10, .st11, .st12, .st13, .st14 {
        isolation: isolate;
      }

      .st8 {
        font-size: 8.5px;
      }

      .st15 {
        letter-spacing: 0em;
      }

      .st15, .st16, .st17, .st10, .st11, .st18 {
        font-family: ArialMT, Arial;
      }

      .st19 {
        fill: #fff;
      }

      .st16 {
        letter-spacing: 0em;
      }

      .st1, .st3, .st4, .st5 {
        font-family: AdobeMyungjoStd-Medium-KSCpc-EUC-H, 'Adobe Myungjo Std';
      }

      .st1, .st10 {
        font-size: 7.09px;
      }

      .st20 {
        stroke-miterlimit: 10;
        stroke-width: 3px;
      }

      .st20, .st21, .st22, .st23 {
        stroke: #000;
      }

      .st20, .st24 {
        fill: #ffc200;
      }

      .st21, .st22 {
        stroke-width: .85px;
      }

      .st21, .st22, .st23 {
        fill: none;
      }

      .st21, .st23 {
        stroke-miterlimit: 1.13;
      }

      .st25, .st12 {
        fill: red;
      }

      .st2 {
        font-size: 13.55px;
      }

      .st3, .st11 {
        font-size: 7.94px;
      }

      .st9, .st12 {
        font-size: 6.8px;
      }

      .st4 {
        letter-spacing: 0em;
      }

      .st26 {
        font-family: Freesentation-6SemiBold, Freesentation;
        font-size: 13.62px;
        font-weight: 600;
      }

      .st22 {
        stroke-linejoin: round;
      }

      .st27 {
        font-family: Freesentation-8ExtraBold, Freesentation;
        font-size: 16.85px;
      }

      .st27, .st6, .st28 {
        font-weight: 700;
      }

      .st6 {
        font-family: Freesentation-7Bold, Freesentation;
      }

      .st23 {
        stroke-width: .28px;
      }

      .st13 {
        font-size: 6.24px;
      }

      .st14 {
        font-size: 7.37px;
      }

      .st18 {
        letter-spacing: 0em;
      }

      .st28 {
        font-family: Arial-BoldMT, Arial;
      }
    </style>
  </defs>
  <text class="st7" transform="translate(138 59.42) scale(.78 1)"><tspan x="0" y="0">가변축 작동상태를 반드시 확인하십시오!</tspan></text>
  <rect class="st19" x="791.5" y="195.8" width="283.46" height="283.46"/>
  <rect class="st21" x="844.04" y="268.04" width="255.12" height="85.04"/>
  <line class="st23" x1="914.9" y1="268.04" x2="914.9" y2="353.08"/>
  <line class="st23" x1="971.59" y1="268.04" x2="971.59" y2="353.08"/>
  <text class="st1" transform="translate(871.5 276.55)"><tspan x="0" y="0">공기압</tspan></text>
  <text class="st1" transform="translate(932.62 276.55)"><tspan x="0" y="0">적정중량</tspan></text>
  <text class="st1" transform="translate(1037.15 276.55)"><tspan x="0" y="0">비고</tspan></text>
  <text class="st10" transform="translate(867.55 287.88)"><tspan x="0" y="0">2.0~2.5</tspan></text>
  <text class="st10" transform="translate(935.27 287.88)"><tspan x="0" y="0">8~12</tspan></text>
  <text class="st10" transform="translate(867.55 299.22)"><tspan x="0" y="0">3.0~3.5</tspan></text>
  <text class="st10" transform="translate(933.3 299.22)"><tspan x="0" y="0">13~15</tspan></text>
  <text class="st10" transform="translate(867.55 310.56)"><tspan x="0" y="0">4.0~4.5</tspan></text>
  <text class="st10" transform="translate(933.3 310.56)"><tspan x="0" y="0">18~19</tspan></text>
  <text class="st10" transform="translate(867.55 321.9)"><tspan x="0" y="0">4.5~5.5</tspan></text>
  <text class="st10" transform="translate(933.3 321.9)"><tspan x="0" y="0">20~21</tspan></text>
  <text class="st10" transform="translate(867.55 333.24)"><tspan x="0" y="0">5.5~6.0</tspan></text>
  <text class="st10" transform="translate(933.3 333.24)"><tspan x="0" y="0">22~25</tspan></text>
  <text class="st13" transform="translate(977.26 287.88)"><tspan class="st5" x="0" y="0">균등</tspan><tspan class="st17" x="12.47" y="0"> </tspan><tspan class="st5" x="14.21" y="0">적재</tspan><tspan class="st17" x="26.68" y="0"> </tspan><tspan class="st5" x="28.41" y="0">기준</tspan><tspan class="st17" x="40.88" y="0"> </tspan><tspan class="st5" x="42.62" y="0">참고값</tspan><tspan class="st18" x="61.32" y="0">, </tspan><tspan class="st5" x="64.79" y="0">차량별</tspan><tspan class="st18" x="83.5" y="0"> </tspan><tspan class="st5" x="85.23" y="0">편차</tspan><tspan class="st18" x="97.7" y="0"> </tspan><tspan class="st5" x="99.44" y="0">있음</tspan></text>
  <text class="st13" transform="translate(977.26 299.22)"><tspan class="st5" x="0" y="0">편중</tspan><tspan class="st17" x="12.47" y="0"> </tspan><tspan class="st5" x="14.21" y="0">하중</tspan><tspan class="st17" x="26.68" y="0"> </tspan><tspan class="st5" x="28.41" y="0">시</tspan><tspan class="st17" x="34.65" y="0"> </tspan><tspan class="st5" x="36.38" y="0">자동하강장치</tspan><tspan class="st17" x="73.8" y="0"> </tspan><tspan class="st5" x="75.53" y="0">작동</tspan><tspan class="st17" x="88" y="0"> </tspan><tspan class="st5" x="89.73" y="0">지연</tspan><tspan class="st17" x="102.21" y="0">/</tspan><tspan class="st5" x="103.94" y="0">미작동</tspan><tspan class="st18" x="122.65" y="0"> </tspan><tspan class="st5" x="124.38" y="0">가능</tspan></text>
  <text class="st13" transform="translate(977.26 310.56)"><tspan class="st5" x="0" y="0">재시동</tspan><tspan class="st17" x="18.71" y="0">(</tspan><tspan class="st5" x="20.79" y="0">리셋</tspan><tspan class="st17" x="33.26" y="0">) </tspan><tspan class="st4" x="37.07" y="0">후</tspan><tspan class="st18" x="43.3" y="0"> </tspan><tspan class="st4" x="45.04" y="0">재확인</tspan></text>
  <text class="st8" transform="translate(858.21 367.25)"><tspan class="st5" x="0" y="0">작동시</tspan><tspan class="st28" x="25.51" y="0"> </tspan><tspan class="st5" x="27.87" y="0">주의</tspan><tspan class="st28" x="44.88" y="0"> </tspan><tspan class="st5" x="47.25" y="0">사항</tspan></text>
  <text class="st9" transform="translate(858.21 378.59)"><tspan class="st17" x="0" y="0">1. </tspan><tspan class="st5" x="7.56" y="0">정차</tspan><tspan class="st17" x="21.17" y="0"> </tspan><tspan class="st5" x="23.06" y="0">후</tspan><tspan class="st17" x="29.86" y="0"> </tspan><tspan class="st5" x="31.75" y="0">안전</tspan><tspan class="st17" x="45.36" y="0"> </tspan><tspan class="st5" x="47.25" y="0">확인</tspan><tspan class="st16" x="60.86" y="0"> </tspan><tspan class="st5" x="62.75" y="0">후</tspan><tspan class="st17" x="69.55" y="0"> </tspan><tspan class="st5" x="71.44" y="0">작동</tspan></text>
  <text class="st9" transform="translate(858.21 389.93)"><tspan class="st17" x="0" y="0">2. </tspan><tspan class="st5" x="7.56" y="0">공차</tspan><tspan class="st17" x="21.17" y="0"> </tspan><tspan class="st5" x="23.06" y="0">주행</tspan><tspan class="st17" x="36.67" y="0"> </tspan><tspan class="st5" x="38.56" y="0">시</tspan><tspan class="st17" x="45.36" y="0"> </tspan><tspan class="st5" x="47.25" y="0">상승</tspan><tspan class="st16" x="60.86" y="0"> </tspan><tspan class="st5" x="62.75" y="0">유지</tspan></text>
  <text class="st12" transform="translate(858.21 401.27)"><tspan class="st17" x="0" y="0">→ </tspan><tspan class="st5" x="8.69" y="0">하강</tspan><tspan class="st16" x="22.3" y="0"> </tspan><tspan class="st5" x="24.19" y="0">시</tspan><tspan class="st17" x="30.99" y="0"> </tspan><tspan class="st5" x="32.88" y="0">구동력</tspan><tspan class="st17" x="53.29" y="0"> </tspan><tspan class="st5" x="55.18" y="0">상실</tspan><tspan class="st17" x="68.79" y="0"> </tspan><tspan class="st5" x="70.68" y="0">위험</tspan></text>
  <text class="st9" transform="translate(858.21 412.61)"><tspan class="st17" x="0" y="0">3. </tspan><tspan class="st5" x="7.56" y="0">연속</tspan><tspan class="st17" x="21.17" y="0"> </tspan><tspan class="st5" x="23.06" y="0">조작</tspan><tspan class="st17" x="36.67" y="0"> </tspan><tspan class="st5" x="38.56" y="0">금지</tspan></text>
  <text class="st9" transform="translate(858.21 423.95)"><tspan class="st17" x="0" y="0">4. </tspan><tspan class="st5" x="7.56" y="0">과적</tspan><tspan class="st17" x="21.17" y="0"> </tspan><tspan class="st5" x="23.06" y="0">금지</tspan></text>
  <text class="st14" transform="translate(918.78 446.62)"><tspan class="st5" x="0" y="0">자세한</tspan><tspan class="st15" x="22.11" y="0"> </tspan><tspan class="st5" x="24.16" y="0">사항은</tspan><tspan class="st17" x="46.27" y="0"> </tspan><tspan class="st5" x="48.32" y="0">사용설명서를</tspan><tspan class="st17" x="92.54" y="0"> </tspan><tspan class="st5" x="94.58" y="0">참고하십시오</tspan></text>
  <text class="st11" transform="translate(886.56 463.63)"><tspan x="0" y="0">A/S 1551-5237</tspan></text>
  <text class="st3" transform="translate(1010.43 463.63)"><tspan x="0" y="0">쓰리축코리아</tspan></text>
  <path class="st20" d="M73.9,30.22l-34.32,59.45c-2,3.46.5,7.78,4.49,7.78h68.65c3.99,0,6.48-4.32,4.49-7.78l-34.32-59.45c-2-3.46-6.98-3.46-8.98,0Z"/>
  <rect x="181.43" y="71.78" width="268.84" height="20.81"/>
  <text class="st26" transform="translate(204.21 86.55)"><tspan class="st24" x="0" y="0">과적·법규위반</tspan><tspan class="st19" x="67.54" y="0" xml:space="preserve"> 등의 책임은 </tspan><tspan class="st24" x="127.2" y="0">사용자</tspan><tspan class="st19" x="158.37" y="0">에게 있습니다</tspan></text>
  <text transform="translate(33.94 153.04)"><tspan><tspan class="st27" x="0" y="0">중·대형 가변축 적정 공기압 </tspan><tspan class="st2" x="163.85" y="0">(무게에 따라 압력을 조정하십시오)</tspan></tspan></text>
  <text class="st27" transform="translate(33.94 344.58)"><tspan x="0" y="0">작동시 주의사항</tspan></text>
  <text class="st27" transform="translate(184.81 495.44)"><tspan x="0" y="0">ㅈㄻㄴㅇㄻㄴㅇㄻㄴㅇㄹㅇ자세</tspan></text>
  <g>
    <path d="M37.31,362l-1.77.94v-1.32l2.47-1.44h.74v9.49h-1.44v-7.66Z"/>
    <path d="M42.37,368.34c.15-.16.36-.24.62-.24s.47.08.63.24.23.36.23.59-.08.43-.22.57c-.15.15-.36.22-.63.22s-.47-.07-.62-.22c-.15-.14-.22-.34-.22-.57s.07-.44.22-.59Z"/>
    <path d="M52.85,368.43l-.75-1.04c1.28-.67,2.26-1.47,2.95-2.4.69-.93,1.1-2.01,1.24-3.26h-3.63v-1.14h4.99c0,3.59-1.6,6.21-4.8,7.84ZM60.46,363.72h1.53v1.15h-1.53v5.51h-1.35v-10.91h1.35v4.25Z"/>
    <path d="M71.11,367.55h-1.36v-2.74h-2.07v.96h-4.97v-5.59h1.33v1.74h2.3v-1.74h1.33v1.16h2.07v-1.88h1.36v8.07ZM66.34,364.69v-1.71h-2.3v1.71h2.3ZM71.35,370.19h-7.24v-3.44h1.37v2.33h5.87v1.11ZM69.75,363.7v-1.24h-2.07v1.24h2.07Z"/>
    <path d="M81.96,365.98h-4.16v1.04h3v3.36h-1.37v-2.27h-6.03v-1.08h3.05v-1.04h-4.15v-1.1h9.66v1.1ZM77.8,360.49h3.22v1.07h-3.13c.08.48.43.88,1.04,1.21s1.46.54,2.54.63l-.4,1.03c-.95-.08-1.76-.26-2.44-.55-.67-.29-1.18-.66-1.51-1.13-.33.46-.83.83-1.51,1.12-.68.29-1.49.48-2.44.55l-.4-1.03c1.07-.09,1.92-.3,2.54-.63.62-.33.96-.73,1.04-1.21h-3.09v-1.07h3.18v-1.03h1.35v1.03Z"/>
    <path d="M89.32,363.14c.43.58,1.03,1,1.82,1.25l-.7,1.1c-.56-.2-1.05-.49-1.45-.87-.41-.37-.73-.82-.96-1.33-.24.59-.57,1.1-.99,1.53-.42.43-.93.75-1.53.96l-.71-1.08c.83-.29,1.46-.76,1.89-1.42s.65-1.39.65-2.21v-1.02h1.36v1.15c0,.71.21,1.36.64,1.94ZM92.41,366.78c.63.37.95.88.95,1.52s-.31,1.17-.94,1.54c-.63.37-1.5.55-2.61.55s-2-.18-2.64-.55c-.64-.37-.96-.88-.96-1.54s.32-1.15.96-1.52c.64-.37,1.52-.55,2.63-.55s1.97.19,2.6.55ZM88.15,367.57c-.39.17-.58.42-.58.73,0,.33.19.59.57.75.38.17.94.25,1.67.25s1.27-.08,1.65-.25c.38-.17.57-.42.57-.75,0-.32-.19-.56-.57-.73-.38-.17-.93-.26-1.65-.26s-1.28.09-1.67.26ZM93.26,362.1h1.45v1.14h-1.45v2.75h-1.36v-6.53h1.36v2.64Z"/>
    <path d="M104.62,365.65h-9.66v-1.11h9.66v1.11ZM100.95,361.23c.3.39.72.73,1.27,1,.55.28,1.18.46,1.89.55l-.49,1.1c-.86-.12-1.63-.38-2.3-.77-.67-.39-1.18-.87-1.52-1.43-.34.57-.84,1.05-1.5,1.44s-1.43.64-2.31.77l-.52-1.1c.71-.09,1.35-.27,1.9-.55.55-.28.98-.61,1.27-1,.3-.39.45-.79.45-1.2v-.4h1.4v.4c0,.41.15.8.45,1.2ZM102.49,366.98c.65.34.97.83.97,1.45s-.32,1.11-.97,1.45-1.55.52-2.7.52-2.07-.17-2.72-.52c-.65-.34-.98-.83-.98-1.45s.33-1.11.98-1.45c.65-.34,1.56-.51,2.72-.51s2.05.17,2.7.51ZM98.06,367.75c-.4.16-.59.39-.59.69,0,.61.78.91,2.33.91s2.31-.3,2.31-.91c0-.3-.2-.53-.59-.69-.39-.16-.97-.24-1.72-.24s-1.33.08-1.73.24Z"/>
    <path d="M113.21,364.71h-5.11v-4.57h5.11v4.57ZM116.57,367.36h-3c.04.27.21.55.5.83s.68.52,1.18.72c.5.2,1.08.34,1.73.41l-.45,1.04c-.85-.09-1.59-.29-2.22-.6-.63-.31-1.12-.7-1.45-1.16-.33.46-.82.84-1.45,1.16-.63.31-1.38.51-2.23.6l-.45-1.04c.65-.06,1.23-.19,1.74-.39.51-.2.91-.44,1.2-.72.29-.28.46-.56.5-.85h-3.03v-1.04h3.04v-.94h1.37v.94h3.03v1.04ZM109.43,363.62h2.46v-2.41h-2.46v2.41ZM116.37,365.67h-1.33v-6.21h1.33v6.21Z"/>
    <path d="M126.32,362.25h-6.24v-1.12h2.47v-1.51h1.35v1.51h2.42v1.12ZM124.61,363.27c.41.22.73.53.96.92.23.39.34.83.34,1.33s-.11.95-.34,1.34-.55.7-.95.91c-.41.22-.86.32-1.37.32s-.97-.11-1.38-.32c-.41-.22-.73-.52-.96-.91-.23-.39-.34-.84-.34-1.34s.12-.94.35-1.33c.23-.39.55-.7.96-.92.41-.22.86-.33,1.37-.33s.96.11,1.37.33ZM122.23,364.46c-.26.27-.39.62-.39,1.05s.13.79.39,1.05.6.39,1.01.39.74-.13.99-.39c.26-.26.38-.61.38-1.05s-.13-.78-.39-1.05-.59-.4-.98-.4-.75.13-1.01.4ZM128.45,363.81h1.6v1.12h-1.6v5.47h-1.33v-10.94h1.33v4.35Z"/>
    <path d="M134.37,363.85c-.86,1-2.08,1.73-3.67,2.19l-.54-1.1c1.19-.34,2.13-.83,2.81-1.45.69-.62,1.09-1.35,1.2-2.17h-3.53v-1.12h5.01c0,1.44-.43,2.65-1.29,3.65ZM137.74,366.58c.64.4.96.93.96,1.61s-.32,1.22-.96,1.61-1.5.59-2.58.59c-.71,0-1.33-.09-1.86-.27s-.96-.44-1.26-.77c-.3-.33-.45-.72-.45-1.17s.15-.84.45-1.17c.3-.33.72-.59,1.26-.77s1.16-.27,1.86-.27c1.08,0,1.94.2,2.58.59ZM133.53,367.37c-.39.2-.59.47-.59.83s.2.63.59.83c.39.2.94.3,1.63.3s1.23-.1,1.62-.3c.39-.2.59-.47.59-.83s-.2-.63-.59-.83c-.39-.2-.93-.3-1.62-.3s-1.24.1-1.63.3ZM138.58,362.12h1.45v1.12h-1.45v2.6h-1.35v-6.38h1.35v2.66Z"/>
    <path d="M147.14,364.03c.22.64.53,1.21.93,1.7s.89.87,1.45,1.12l-.79,1.11c-.59-.28-1.11-.69-1.55-1.24-.44-.54-.78-1.17-1.03-1.9-.25.78-.6,1.47-1.05,2.06-.45.59-.99,1.04-1.62,1.33l-.81-1.16c.58-.26,1.08-.65,1.5-1.17.42-.52.74-1.11.95-1.77s.32-1.35.32-2.07v-1.72h1.36v1.72c0,.68.11,1.34.32,1.98ZM151.61,370.42h-1.36v-10.95h1.36v10.95Z"/>
    <path d="M157.07,361.91h2.39v-1.65h1.35v5.48h-5.09v-5.48h1.35v1.65ZM164.15,370.19h-7.2v-3.47h1.33v2.37h5.87v1.11ZM159.46,364.65v-1.68h-2.39v1.68h2.39ZM163.74,362.61h1.47v1.15h-1.47v3.75h-1.35v-8.03h1.35v3.13Z"/>
    <path d="M175.13,369.01h-9.69v-1.14h9.69v1.14ZM174.07,365.68h-7.45v-5.29h7.36v1.12h-6.03v3.04h6.12v1.12Z"/>
    <path d="M179.88,364.03c.22.64.53,1.21.93,1.7s.89.87,1.45,1.12l-.79,1.11c-.59-.28-1.11-.69-1.55-1.24-.44-.54-.78-1.17-1.03-1.9-.25.78-.6,1.47-1.05,2.06-.45.59-.99,1.04-1.62,1.33l-.81-1.16c.58-.26,1.08-.65,1.5-1.17.42-.52.74-1.11.95-1.77s.32-1.35.32-2.07v-1.72h1.36v1.72c0,.68.11,1.34.32,1.98ZM184.35,370.42h-1.36v-10.95h1.36v10.95Z"/>
    <path d="M192.67,363.25c.43.6,1.03,1.04,1.82,1.31l-.66,1.1c-.56-.2-1.05-.5-1.47-.89s-.75-.85-.98-1.37c-.24.59-.58,1.1-1.02,1.54-.44.44-.97.77-1.59,1l-.7-1.08c.83-.29,1.46-.76,1.91-1.41.44-.65.67-1.36.67-2.13v-.03h-2.18v-1.12h5.72v1.12h-2.15c0,.71.21,1.36.64,1.96ZM196.05,366.79c.64.37.96.88.96,1.54s-.32,1.16-.96,1.53-1.52.55-2.65.55-2.02-.18-2.66-.55c-.64-.37-.96-.87-.96-1.53s.32-1.17.96-1.54c.64-.37,1.53-.55,2.66-.55s2.01.18,2.65.55ZM191.71,367.56c-.4.18-.59.43-.59.77s.2.58.59.75c.4.18.96.26,1.69.26s1.29-.09,1.69-.26c.39-.18.59-.43.59-.75s-.2-.59-.59-.77c-.39-.18-.95-.26-1.69-.26s-1.29.09-1.69.26ZM197,365.96h-1.36v-2.66h-1.77v-1.14h1.77v-2.71h1.36v6.5Z"/>
    <path d="M202.61,365.35c.43.78,1.04,1.37,1.82,1.76l-.73,1.03c-.55-.26-1.04-.65-1.45-1.16-.41-.51-.74-1.09-.96-1.74-.23.71-.56,1.33-1,1.87-.44.54-.94.95-1.53,1.22l-.74-1.07c.54-.26,1-.61,1.39-1.08.39-.46.69-.98.89-1.55.2-.57.3-1.15.3-1.73v-.53h-2.26v-1.11h2.25v-1.57h1.36v1.57h2.19v1.11h-2.19v.53c0,.85.22,1.66.65,2.44ZM206.51,363.78h1.6v1.15h-1.6v5.47h-1.35v-10.94h1.35v4.32Z"/>
    <path d="M215.2,363.14c.43.58,1.03,1,1.82,1.25l-.7,1.1c-.56-.2-1.05-.49-1.45-.87-.41-.37-.73-.82-.96-1.33-.24.59-.57,1.1-.99,1.53-.42.43-.93.75-1.53.96l-.71-1.08c.83-.29,1.46-.76,1.89-1.42s.65-1.39.65-2.21v-1.02h1.36v1.15c0,.71.21,1.36.64,1.94ZM218.29,366.78c.63.37.95.88.95,1.52s-.31,1.17-.94,1.54c-.63.37-1.5.55-2.61.55s-2-.18-2.64-.55c-.64-.37-.96-.88-.96-1.54s.32-1.15.96-1.52c.64-.37,1.52-.55,2.63-.55s1.97.19,2.6.55ZM214.03,367.57c-.39.17-.58.42-.58.73,0,.33.19.59.57.75.38.17.94.25,1.67.25s1.27-.08,1.65-.25c.38-.17.57-.42.57-.75,0-.32-.19-.56-.57-.73-.38-.17-.93-.26-1.65-.26s-1.28.09-1.67.26ZM219.14,362.1h1.45v1.14h-1.45v2.75h-1.36v-6.53h1.36v2.64Z"/>
    <path d="M225.51,361.72h-2.99v1.78h2.8v1.07h-2.8v2.1c.7,0,1.29-.03,1.77-.05.48-.03.97-.08,1.47-.16l.11,1.12c-.57.1-1.15.16-1.72.2s-1.3.05-2.19.05h-.71v-7.2h4.27v1.08ZM230,370.4h-1.29v-5.55h-1.04v5.02h-1.28v-10.23h1.28v4.1h1.04v-4.28h1.29v10.94Z"/>
    <path d="M237.88,369.87h-1.27v-5.19h-.96c-.06,1.08-.3,1.92-.71,2.52-.41.61-.94.91-1.61.91-.47,0-.87-.16-1.22-.48-.34-.32-.61-.77-.8-1.36-.19-.59-.28-1.29-.28-2.09s.09-1.5.28-2.08c.19-.58.46-1.04.8-1.35.34-.32.75-.48,1.22-.48.64,0,1.17.29,1.58.88s.65,1.39.72,2.41h.98v-3.92h1.27v10.23ZM232.56,362.26c-.19.45-.28,1.09-.28,1.93s.09,1.48.28,1.93.45.67.77.67c.34,0,.61-.22.79-.67.18-.45.28-1.09.28-1.94s-.09-1.49-.28-1.94c-.19-.44-.45-.67-.79-.67s-.58.22-.77.67ZM240.08,370.4h-1.29v-10.94h1.29v10.94Z"/>
    <path d="M245.63,364.97c.45.88,1.09,1.52,1.92,1.91l-.81,1.11c-1.16-.6-1.99-1.66-2.47-3.18-.24.77-.57,1.44-1,2.03s-.94,1.03-1.53,1.34l-.83-1.12c.56-.27,1.05-.67,1.45-1.19.4-.52.7-1.11.91-1.77.21-.66.31-1.34.31-2.04v-1.72h1.37v1.72c0,1.06.23,2.03.68,2.91ZM249.9,370.42h-1.33v-6.32h-2.18v-1.12h2.18v-3.51h1.33v10.95Z"/>
    <path d="M258.01,365.35c.43.78,1.04,1.37,1.82,1.76l-.73,1.03c-.55-.26-1.04-.65-1.45-1.16-.41-.51-.74-1.09-.96-1.74-.23.71-.56,1.33-1,1.87-.44.54-.94.95-1.53,1.22l-.74-1.07c.54-.26,1-.61,1.39-1.08.39-.46.69-.98.89-1.55.2-.57.3-1.15.3-1.73v-.53h-2.26v-1.11h2.25v-1.57h1.36v1.57h2.19v1.11h-2.19v.53c0,.85.22,1.66.65,2.44ZM261.91,363.78h1.6v1.15h-1.6v5.47h-1.35v-10.94h1.35v4.32Z"/>
    <path d="M268.93,363.31h-3.49v1.11c.96,0,1.77-.04,2.43-.08s1.33-.13,2-.25l.13,1.11c-.73.14-1.47.24-2.21.28-.74.05-1.68.07-2.83.07h-.89v-3.29h3.53v-1.04h-3.54v-1.08h4.86v3.17ZM271.19,366.83c.64.37.96.88.96,1.52s-.32,1.13-.96,1.49c-.64.36-1.51.54-2.62.54s-1.98-.18-2.62-.54c-.63-.36-.95-.85-.95-1.49s.32-1.15.95-1.52c.63-.37,1.51-.55,2.62-.55s1.98.19,2.62.55ZM266.9,367.61c-.39.17-.59.42-.59.75s.2.56.59.73c.39.17.95.26,1.67.26s1.29-.09,1.67-.26c.38-.17.57-.42.57-.73s-.19-.57-.57-.75c-.38-.17-.94-.26-1.67-.26s-1.28.09-1.67.26ZM273.52,362.16h-1.48v1.15h1.48v1.15h-1.48v1.61h-1.35v-6.59h1.35v1.53h1.48v1.15Z"/>
    <path d="M280.14,367.06c.89-.04,1.73-.12,2.52-.24l.09,1c-.99.19-1.98.32-2.99.36-1,.05-2.16.07-3.46.07l-.19-1.14h2.67v-2h1.35v1.93ZM282.35,361.51h-2.19c.03.62.25,1.19.67,1.7.42.51,1.02.88,1.8,1.12l-.63,1.07c-.58-.18-1.09-.44-1.51-.8s-.76-.78-1-1.26c-.24.53-.58.99-1.02,1.39s-.96.69-1.57.87l-.67-1.08c.79-.25,1.41-.64,1.85-1.18s.67-1.15.7-1.82h-2.18v-1.14h5.76v1.14ZM286.12,364.98h-1.51v5.42h-1.36v-10.94h1.36v4.37h1.51v1.15Z"/>
    <path d="M296.01,366.74h-4.2v3.66h-1.35v-3.66h-4.15v-1.12h9.7v1.12ZM293.13,360.15c.58.2,1.03.49,1.35.86.32.37.48.8.48,1.29s-.16.91-.48,1.28c-.32.37-.77.65-1.35.85-.58.2-1.25.3-2,.3s-1.41-.1-1.98-.3c-.57-.2-1.02-.48-1.34-.85s-.48-.8-.48-1.28.16-.93.48-1.29c.32-.37.77-.66,1.34-.86.57-.2,1.23-.3,1.98-.3s1.41.1,2,.3ZM289.37,361.31c-.43.24-.65.57-.65.99s.22.75.65.98,1.02.35,1.77.35,1.35-.12,1.79-.35.65-.56.65-.98-.22-.75-.66-.99c-.44-.24-1.04-.36-1.78-.36s-1.34.12-1.77.36Z"/>
    <path d="M297.3,368.34c.15-.16.36-.24.62-.24.25,0,.45.07.6.21s.24.32.26.54c.03.11.04.22.04.33,0,.31-.09.63-.26.95-.13.24-.3.46-.51.65s-.41.35-.61.44l-.37-.42c.37-.28.6-.61.7-.99l.03-.09c-.22-.02-.39-.1-.52-.24-.13-.15-.19-.32-.19-.54,0-.24.07-.44.22-.59Z"/>
    <path d="M308.46,362.25h-6.24v-1.12h2.47v-1.51h1.35v1.51h2.42v1.12ZM306.75,363.27c.41.22.73.53.96.92.23.39.34.83.34,1.33s-.11.95-.34,1.34-.55.7-.95.91c-.41.22-.86.32-1.37.32s-.97-.11-1.38-.32c-.41-.22-.73-.52-.96-.91-.23-.39-.34-.84-.34-1.34s.12-.94.35-1.33c.23-.39.55-.7.96-.92.41-.22.86-.33,1.37-.33s.96.11,1.37.33ZM304.37,364.46c-.26.27-.39.62-.39,1.05s.13.79.39,1.05.6.39,1.01.39.74-.13.99-.39c.26-.26.38-.61.38-1.05s-.13-.78-.39-1.05-.59-.4-.98-.4-.75.13-1.01.4ZM310.59,363.81h1.6v1.12h-1.6v5.47h-1.33v-10.94h1.33v4.35Z"/>
    <path d="M322.03,366.91h-4.2v3.49h-1.35v-3.49h-4.15v-1.1h9.7v1.1ZM314.84,361.22h4.65v-1.32h1.36v4.8h-7.36v-4.8h1.35v1.32ZM319.49,363.57v-1.27h-4.65v1.27h4.65Z"/>
    <path d="M330.59,364.71h-5.11v-4.57h5.11v4.57ZM333.95,367.36h-3c.04.27.21.55.5.83s.68.52,1.18.72c.5.2,1.08.34,1.73.41l-.45,1.04c-.85-.09-1.59-.29-2.22-.6-.63-.31-1.12-.7-1.45-1.16-.33.46-.82.84-1.45,1.16-.63.31-1.38.51-2.23.6l-.45-1.04c.65-.06,1.23-.19,1.74-.39.51-.2.91-.44,1.2-.72.29-.28.46-.56.5-.85h-3.03v-1.04h3.04v-.94h1.37v.94h3.03v1.04ZM326.81,363.62h2.46v-2.41h-2.46v2.41ZM333.75,365.67h-1.33v-6.21h1.33v6.21Z"/>
    <path d="M347.16,366.66h-4.18v3.73h-1.35v-3.73h-4.14v-1.11h9.66v1.11ZM346.28,361.15h-3.16c.04.4.2.78.5,1.14s.71.67,1.24.93,1.13.44,1.82.54l-.49,1.08c-.91-.14-1.69-.41-2.36-.81-.67-.4-1.16-.9-1.49-1.49-.33.59-.82,1.09-1.48,1.49-.66.4-1.44.67-2.34.81l-.5-1.08c.69-.1,1.29-.28,1.81-.54.52-.26.93-.57,1.23-.93s.47-.74.5-1.14h-3.17v-1.07h7.89v1.07Z"/>
    <path d="M356.48,367.55h-1.36v-2.74h-2.07v.96h-4.97v-5.59h1.33v1.74h2.3v-1.74h1.33v1.16h2.07v-1.88h1.36v8.07ZM351.71,364.69v-1.71h-2.3v1.71h2.3ZM356.71,370.19h-7.24v-3.44h1.37v2.33h5.87v1.11ZM355.12,363.7v-1.24h-2.07v1.24h2.07Z"/>
    <path d="M364.67,360.54c.44.23.78.56,1.03.98.25.42.38.89.38,1.41s-.13,1-.38,1.42c-.25.42-.59.74-1.03.98s-.92.35-1.46.35-1.02-.12-1.46-.35-.78-.56-1.03-.98c-.25-.42-.38-.89-.38-1.42s.13-.99.38-1.4.6-.74,1.04-.98.93-.36,1.45-.36,1.02.12,1.46.35ZM362.11,361.81c-.29.28-.44.65-.44,1.11s.15.84.44,1.12c.29.28.66.42,1.11.42s.81-.14,1.1-.42c.29-.28.44-.66.44-1.12s-.15-.83-.44-1.11-.66-.42-1.1-.42-.82.14-1.11.42ZM369.28,370.19h-7.31v-3.62h1.36v2.51h5.95v1.11ZM369,367.36h-1.36v-7.89h1.36v7.89Z"/>
    <path d="M370.75,364.38c1.41-.03,2.58-.06,3.52-.11s1.86-.12,2.75-.22l.08.99c-.83.14-1.71.25-2.66.32v2.1h-1.33v-2.02c-.85.04-1.77.05-2.75.05l-.16-1.1h.54ZM375.02,360.1c.4.16.71.39.93.69.22.3.33.63.33,1.01,0,.58-.24,1.05-.73,1.4-.48.35-1.12.53-1.9.53s-1.42-.18-1.91-.53c-.49-.35-.73-.82-.73-1.4,0-.38.11-.71.34-1.01.23-.29.54-.52.94-.69s.86-.25,1.37-.25.97.08,1.37.25ZM379.39,370.19h-7.8v-3.24h1.36v2.13h6.44v1.11ZM372.66,361.12c-.25.16-.38.39-.38.68s.13.5.38.67c.25.16.58.24,1,.24s.73-.08.98-.24.37-.39.37-.67-.12-.52-.37-.68-.57-.25-.98-.25-.75.08-1,.25ZM379.15,367.75h-1.35v-.94h-2.07v-.95h2.07v-6.38h1.35v8.27Z"/>
    <path d="M387.26,360.55c.44.24.78.56,1.03.98.25.41.38.89.38,1.41s-.13,1-.38,1.42c-.25.42-.59.75-1.03.98-.44.24-.92.36-1.46.36s-1.01-.12-1.45-.36c-.44-.24-.79-.57-1.04-.99-.25-.42-.38-.89-.38-1.41s.13-.99.38-1.41c.25-.42.6-.75,1.04-.98s.92-.36,1.45-.36,1.02.12,1.46.36ZM384.71,361.81c-.3.28-.44.66-.44,1.12s.15.83.44,1.12c.29.29.66.43,1.09.43.46,0,.83-.14,1.13-.42.3-.28.44-.66.44-1.12s-.15-.84-.44-1.12c-.29-.28-.67-.42-1.13-.42-.43,0-.8.14-1.09.42ZM391.61,370.19h-7.2v-3.58h1.33v2.47h5.87v1.11ZM391.2,362.66h1.47v1.15h-1.47v3.63h-1.35v-7.97h1.35v3.18Z"/>
    <path d="M397.47,363.56c.43.59,1.04,1.03,1.83,1.31l-.67,1.1c-.56-.2-1.06-.5-1.48-.89-.42-.39-.75-.85-.99-1.37-.24.58-.57,1.09-1,1.51-.43.43-.96.75-1.57.97l-.7-1.11c.81-.28,1.44-.74,1.9-1.38s.68-1.34.68-2.09v-.25h-2.19v-1.11h5.72v1.11h-2.15v.26c0,.7.21,1.34.64,1.94ZM402.06,370.19h-7.23v-3.42h1.33v2.31h5.89v1.11ZM401.8,367.47h-1.36v-3.99h-1.84v-1.12h1.84v-2.88h1.36v7.99Z"/>
    <path d="M408.03,365.53v-.67c-.59-.08-1.06-.26-1.39-.54-.34-.28-.51-.63-.51-1.05,0-.5.23-.9.7-1.2s1.09-.44,1.86-.44,1.4.15,1.87.44.71.69.71,1.2c0,.41-.17.76-.51,1.04-.34.28-.8.46-1.37.54v.63c.94-.05,1.82-.13,2.63-.24l.09.96c-1,.18-2.01.3-3.06.35-1.04.05-2.22.07-3.52.07l-.13-1.07c1.12,0,2,0,2.63-.03ZM411.75,361.34h-6.08v-1h2.37v-.96h1.36v.96h2.35v1ZM413.9,370.4h-1.35v-1.97h-5.83v-1.07h7.17v3.04ZM407.76,362.75c-.22.12-.33.29-.33.52s.11.39.34.52.54.19.93.19.72-.06.94-.19.34-.3.34-.52c0-.47-.43-.7-1.28-.7-.41,0-.72.06-.94.18ZM413.9,362.65h1.41v1.15h-1.41v3.07h-1.35v-7.39h1.35v3.17Z"/>
    <path d="M420.08,360.54c.44.23.78.56,1.03.98.25.42.38.89.38,1.41s-.13,1-.38,1.42c-.25.42-.59.74-1.03.98s-.92.35-1.46.35-1.02-.12-1.46-.35-.78-.56-1.03-.98c-.25-.42-.38-.89-.38-1.42s.13-.99.38-1.4.6-.74,1.04-.98.93-.36,1.45-.36,1.02.12,1.46.35ZM417.51,361.81c-.29.28-.44.65-.44,1.11s.15.84.44,1.12c.29.28.66.42,1.11.42s.81-.14,1.1-.42c.29-.28.44-.66.44-1.12s-.15-.83-.44-1.11-.66-.42-1.1-.42-.82.14-1.11.42ZM424.68,370.19h-7.31v-3.62h1.36v2.51h5.95v1.11ZM424.4,367.36h-1.36v-7.89h1.36v7.89Z"/>
    <path d="M437.83,367.67h-4.19v2.75h-1.35v-2.75h-4.15v-1.12h9.69v1.12ZM437.29,361.75h-8.65v-1.12h3.66v-1.19h1.35v1.19h3.65v1.12ZM435.63,362.71c.63.32.94.78.94,1.37s-.32,1.05-.95,1.37c-.63.33-1.52.49-2.64.49s-2.02-.16-2.66-.49c-.63-.33-.95-.78-.95-1.37s.32-1.06.95-1.37,1.52-.48,2.66-.48,2.02.16,2.65.48ZM430.77,364.09c0,.55.74.82,2.21.82s2.19-.27,2.19-.82-.73-.82-2.19-.82-2.21.27-2.21.82Z"/>
    <path d="M445.2,363.28c.42.59,1.04,1.02,1.85,1.29l-.67,1.07c-.58-.2-1.08-.49-1.5-.87-.42-.38-.75-.83-.98-1.35-.5,1.2-1.36,2-2.58,2.4l-.7-1.06c.83-.28,1.46-.74,1.91-1.37.44-.63.67-1.32.67-2.08v-.08h-2.22v-1.11h5.75v1.11h-2.15v.09c0,.71.21,1.35.63,1.94ZM449.1,370.4h-1.36v-2.74h-5.71v-1.11h7.07v3.85ZM449.1,362.18h1.45v1.15h-1.45v2.72h-1.36v-6.59h1.36v2.72Z"/>
    <path d="M460.49,365.79h-9.69v-1.11h4.18v-1.02h-2.99v-3.71h7.32v1.07h-5.97v1.56h6.02v1.08h-3.05v1.02h4.18v1.11ZM458.33,366.93c.65.35.97.85.97,1.48s-.33,1.12-.98,1.47c-.65.35-1.55.52-2.7.52s-2.06-.17-2.72-.52-.98-.84-.98-1.47.33-1.13.98-1.48c.66-.35,1.56-.53,2.72-.53s2.05.18,2.7.53ZM453.89,367.71c-.39.16-.59.39-.59.7,0,.62.78.94,2.33.94s2.31-.31,2.31-.94c0-.31-.2-.54-.59-.7-.39-.16-.97-.24-1.72-.24s-1.35.08-1.74.24Z"/>
    <path d="M467.08,362.25h-6.24v-1.12h2.47v-1.51h1.35v1.51h2.42v1.12ZM465.37,363.27c.41.22.73.53.96.92.23.39.34.83.34,1.33s-.11.95-.34,1.34-.55.7-.95.91c-.41.22-.86.32-1.37.32s-.97-.11-1.38-.32c-.41-.22-.73-.52-.96-.91-.23-.39-.34-.84-.34-1.34s.12-.94.35-1.33c.23-.39.55-.7.96-.92.41-.22.86-.33,1.37-.33s.96.11,1.37.33ZM462.99,364.46c-.26.27-.39.62-.39,1.05s.13.79.39,1.05.6.39,1.01.39.74-.13.99-.39c.26-.26.38-.61.38-1.05s-.13-.78-.39-1.05-.59-.4-.98-.4-.75.13-1.01.4ZM469.21,363.81h1.6v1.12h-1.6v5.47h-1.33v-10.94h1.33v4.35Z"/>
    <path d="M475.6,362.75c.44.58,1.07.99,1.89,1.25l-.65,1.07c-.6-.18-1.12-.47-1.56-.86s-.78-.84-1.03-1.36c-.25.58-.59,1.08-1.04,1.49s-.98.72-1.61.92l-.65-1.1c.83-.26,1.47-.7,1.92-1.32.45-.62.67-1.29.67-2.02v-1.02h1.39v1.02c0,.71.22,1.35.66,1.92ZM474.1,366.94h4.36v-1.11h1.33v4.44h-7.02v-4.44h1.32v1.11ZM478.46,369.15v-1.14h-4.36v1.14h4.36ZM479.79,365.34h-1.35v-5.88h1.35v5.88Z"/>
    <path d="M485.4,364.03c.22.64.53,1.21.93,1.7s.89.87,1.45,1.12l-.79,1.11c-.59-.28-1.11-.69-1.55-1.24-.44-.54-.78-1.17-1.03-1.9-.25.78-.6,1.47-1.05,2.06-.45.59-.99,1.04-1.62,1.33l-.81-1.16c.58-.26,1.08-.65,1.5-1.17.42-.52.74-1.11.95-1.77s.32-1.35.32-2.07v-1.72h1.36v1.72c0,.68.11,1.34.32,1.98ZM489.88,370.42h-1.36v-10.95h1.36v10.95Z"/>
    <path d="M498,360.44c.6.25,1.07.59,1.41,1.04s.52.96.52,1.55c0,.8-.31,1.47-.92,2-.61.53-1.41.84-2.39.94v1.98h4.19v1.14h-9.69v-1.14h4.15v-1.98c-.98-.11-1.77-.42-2.37-.94s-.9-1.19-.9-1.99c0-.58.17-1.1.52-1.55.34-.45.81-.8,1.41-1.04.6-.25,1.27-.37,2.02-.37s1.44.12,2.04.37ZM494.08,361.68c-.48.33-.73.78-.73,1.35s.24,1.04.73,1.37,1.11.5,1.89.5,1.42-.17,1.91-.5c.49-.33.73-.79.73-1.37s-.25-1.01-.74-1.35c-.49-.33-1.13-.5-1.9-.5s-1.41.17-1.89.5Z"/>
    <path d="M34.58,386.51l3.08-3.38c.52-.57.88-1.04,1.08-1.4.2-.36.3-.71.3-1.06,0-.47-.13-.85-.4-1.14-.26-.29-.63-.44-1.1-.44-.56,0-.98.17-1.27.5-.29.33-.44.77-.44,1.31h-1.44c0-.55.13-1.06.38-1.51s.61-.81,1.09-1.07c.48-.26,1.04-.4,1.69-.4.92,0,1.63.23,2.15.69.52.46.77,1.09.77,1.88,0,.54-.17,1.08-.5,1.64-.33.55-.79,1.15-1.38,1.78l-2.23,2.43h4.51v1.15h-6.29v-1Z"/>
    <path d="M42.37,386.2c.15-.16.36-.24.62-.24s.47.08.63.24.23.36.23.59-.08.43-.22.57c-.15.15-.36.22-.63.22s-.47-.07-.62-.22c-.15-.14-.22-.34-.22-.57s.07-.44.22-.59Z"/>
    <path d="M61.79,383.38h-9.62v-1.11h3.69v-1.98h1.35v1.98h4.58v1.11ZM59.67,384.7c.67.37,1.01.87,1.01,1.51s-.34,1.13-1.02,1.49c-.68.36-1.59.54-2.74.54s-2.05-.18-2.73-.54c-.67-.36-1.01-.86-1.01-1.49s.33-1.15,1-1.51c.67-.37,1.58-.55,2.74-.55s2.07.18,2.74.55ZM60.62,378.72c0,.59-.02,1.1-.05,1.53-.04.43-.12.89-.25,1.39l-1.32-.13c.11-.46.18-.89.21-1.29.04-.4.05-.83.05-1.3h-6v-1.08h7.36v.89ZM55.15,385.46c-.42.18-.63.43-.63.75s.21.56.63.73c.42.17,1.01.25,1.78.25s1.36-.08,1.78-.25c.42-.17.63-.41.63-.73s-.21-.58-.63-.75c-.42-.18-1.02-.26-1.78-.26s-1.35.09-1.77.26Z"/>
    <path d="M66.65,383.21c.43.78,1.04,1.37,1.82,1.76l-.73,1.03c-.55-.26-1.04-.65-1.45-1.16-.41-.51-.74-1.09-.96-1.74-.23.71-.56,1.33-1,1.87-.44.54-.94.95-1.53,1.22l-.74-1.07c.54-.26,1-.61,1.39-1.08.39-.46.69-.98.89-1.55.2-.57.3-1.15.3-1.73v-.53h-2.26v-1.11h2.25v-1.57h1.36v1.57h2.19v1.11h-2.19v.53c0,.85.22,1.66.65,2.44ZM70.55,381.64h1.6v1.15h-1.6v5.47h-1.35v-10.94h1.35v4.32Z"/>
    <path d="M84.46,384.52h-4.18v3.73h-1.35v-3.73h-4.14v-1.11h9.66v1.11ZM83.57,379.01h-3.16c.04.4.2.78.5,1.14s.71.67,1.24.93,1.13.44,1.82.54l-.49,1.08c-.91-.14-1.69-.41-2.36-.81-.67-.4-1.16-.9-1.49-1.49-.33.59-.82,1.09-1.48,1.49-.66.4-1.44.67-2.34.81l-.5-1.08c.69-.1,1.29-.28,1.81-.54.52-.26.93-.57,1.23-.93s.47-.74.5-1.14h-3.17v-1.07h7.89v1.07Z"/>
    <path d="M90.09,379.56h-5.26v-1.07h1.97v-1.07h1.33v1.07h1.96v1.07ZM89.13,380.53c.43.35.64.81.64,1.38s-.21,1.02-.64,1.36-.98.52-1.67.52-1.2-.17-1.63-.52-.64-.8-.64-1.36.21-1.02.64-1.38c.43-.35.97-.53,1.63-.53s1.24.18,1.67.53ZM86.69,381.25c-.2.16-.3.38-.3.65s.1.49.3.65c.2.16.46.25.77.25.33,0,.6-.08.8-.25.2-.16.3-.38.3-.65s-.1-.49-.3-.65-.46-.25-.8-.25-.57.08-.77.25ZM93.05,384.84c.64.34.96.82.96,1.45s-.32,1.1-.96,1.44c-.64.34-1.54.52-2.7.52s-2.02-.17-2.66-.52c-.64-.34-.96-.82-.96-1.44s.32-1.11.96-1.45,1.53-.51,2.66-.51,2.05.17,2.7.51ZM88.08,386.29c0,.29.19.51.58.67.39.16.95.24,1.69.24s1.32-.08,1.71-.24c.39-.16.59-.38.59-.67,0-.62-.77-.92-2.3-.92s-2.27.31-2.27.92ZM93.95,384.18h-1.28v-2.95h-.98v2.59h-1.27v-6.29h1.27v2.58h.98v-2.79h1.28v6.86Z"/>
    <path d="M101.81,381.88c.22.64.53,1.21.93,1.7s.89.87,1.45,1.12l-.79,1.11c-.59-.28-1.11-.69-1.55-1.24-.44-.54-.78-1.17-1.03-1.9-.25.78-.6,1.47-1.05,2.06-.45.59-.99,1.04-1.62,1.33l-.81-1.16c.58-.26,1.08-.65,1.5-1.17.42-.52.74-1.11.95-1.77s.32-1.35.32-2.07v-1.72h1.36v1.72c0,.68.11,1.34.32,1.98ZM106.29,388.27h-1.36v-10.95h1.36v10.95Z"/>
    <path d="M114.49,387.73h-1.27v-5.19h-.96c-.06,1.08-.3,1.92-.71,2.52-.41.61-.94.91-1.61.91-.47,0-.87-.16-1.22-.48-.34-.32-.61-.77-.8-1.36-.19-.59-.28-1.29-.28-2.09s.09-1.5.28-2.08c.19-.58.46-1.04.8-1.35.34-.32.75-.48,1.22-.48.64,0,1.17.29,1.58.88s.65,1.39.72,2.41h.98v-3.92h1.27v10.23ZM109.17,380.12c-.19.45-.28,1.09-.28,1.93s.09,1.48.28,1.93.45.67.77.67c.34,0,.61-.22.79-.67.18-.45.28-1.09.28-1.94s-.09-1.49-.28-1.94c-.19-.44-.45-.67-.79-.67s-.58.22-.77.67ZM116.7,388.26h-1.29v-10.94h1.29v10.94Z"/>
    <path d="M127.31,383.83h-9.7v-1.08h9.7v1.08ZM126.27,388.01h-7.51v-3.22h1.37v2.11h6.13v1.11ZM126.23,381.48h-7.37v-3.78h1.36v2.68h6.01v1.1Z"/>
    <path d="M130.92,386.29l-.75-1.04c1.28-.67,2.26-1.47,2.95-2.4.69-.93,1.1-2.01,1.24-3.26h-3.63v-1.14h4.99c0,3.59-1.6,6.21-4.8,7.84ZM138.53,381.57h1.53v1.15h-1.53v5.51h-1.35v-10.91h1.35v4.25Z"/>
    <path d="M149.18,385.4h-1.36v-2.74h-2.07v.96h-4.97v-5.59h1.33v1.74h2.3v-1.74h1.33v1.16h2.07v-1.88h1.36v8.07ZM144.41,382.55v-1.71h-2.3v1.71h2.3ZM149.41,388.05h-7.24v-3.44h1.37v2.33h5.87v1.11ZM147.82,381.56v-1.24h-2.07v1.24h2.07Z"/>
    <path d="M160.02,383.83h-4.16v1.04h3v3.36h-1.37v-2.27h-6.03v-1.08h3.05v-1.04h-4.15v-1.1h9.66v1.1ZM155.86,378.35h3.22v1.07h-3.13c.08.48.43.88,1.04,1.21s1.46.54,2.54.63l-.4,1.03c-.95-.08-1.76-.26-2.44-.55-.67-.29-1.18-.66-1.51-1.13-.33.46-.83.83-1.51,1.12-.68.29-1.49.48-2.44.55l-.4-1.03c1.07-.09,1.92-.3,2.54-.63.62-.33.96-.73,1.04-1.21h-3.09v-1.07h3.18v-1.03h1.35v1.03Z"/>
    <path d="M170.11,382.92h-9.66v-1.1h9.66v1.1ZM168.09,377.97c.67.32,1,.78,1,1.38s-.33,1.06-1,1.39c-.67.33-1.6.49-2.81.49s-2.16-.16-2.83-.49-1-.79-1-1.39.33-1.06,1-1.38c.67-.32,1.61-.48,2.83-.48s2.14.16,2.81.48ZM168.92,386.33h-5.99v.78h6.26v1.06h-7.6v-2.81h5.99v-.7h-6.01v-1.02h7.35v2.7ZM163.48,378.72c-.41.15-.61.36-.61.63,0,.29.2.51.6.65.4.14,1.01.21,1.82.21s1.42-.07,1.82-.21c.4-.14.6-.36.6-.65,0-.27-.2-.48-.61-.63-.41-.14-1.01-.22-1.81-.22s-1.39.07-1.8.22Z"/>
    <path d="M174.73,379.76h2.39v-1.65h1.35v5.48h-5.09v-5.48h1.35v1.65ZM181.81,388.05h-7.2v-3.47h1.33v2.37h5.87v1.11ZM177.12,382.51v-1.68h-2.39v1.68h2.39ZM181.4,380.46h1.47v1.15h-1.47v3.75h-1.35v-8.03h1.35v3.13Z"/>
    <path d="M192.79,386.87h-9.69v-1.14h9.69v1.14ZM191.74,383.54h-7.45v-5.29h7.36v1.12h-6.03v3.04h6.12v1.12Z"/>
    <path d="M197.54,381.88c.22.64.53,1.21.93,1.7s.89.87,1.45,1.12l-.79,1.11c-.59-.28-1.11-.69-1.55-1.24-.44-.54-.78-1.17-1.03-1.9-.25.78-.6,1.47-1.05,2.06-.45.59-.99,1.04-1.62,1.33l-.81-1.16c.58-.26,1.08-.65,1.5-1.17.42-.52.74-1.11.95-1.77s.32-1.35.32-2.07v-1.72h1.36v1.72c0,.68.11,1.34.32,1.98ZM202.02,388.27h-1.36v-10.95h1.36v10.95Z"/>
    <path d="M210.2,380.99c.43.58,1.03,1,1.82,1.25l-.7,1.1c-.56-.2-1.05-.49-1.45-.87-.41-.37-.73-.82-.96-1.33-.24.59-.57,1.1-.99,1.53-.42.43-.93.75-1.53.96l-.71-1.08c.83-.29,1.46-.76,1.89-1.42s.65-1.39.65-2.21v-1.02h1.36v1.15c0,.71.21,1.36.64,1.94ZM213.3,384.64c.63.37.95.88.95,1.52s-.31,1.17-.94,1.54c-.63.37-1.5.55-2.61.55s-2-.18-2.64-.55c-.64-.37-.96-.88-.96-1.54s.32-1.15.96-1.52c.64-.37,1.52-.55,2.63-.55s1.97.19,2.6.55ZM209.03,385.42c-.39.17-.58.42-.58.73,0,.33.19.59.57.75.38.17.94.25,1.67.25s1.27-.08,1.65-.25c.38-.17.57-.42.57-.75,0-.32-.19-.56-.57-.73-.38-.17-.93-.26-1.65-.26s-1.28.09-1.67.26ZM214.15,379.96h1.45v1.14h-1.45v2.75h-1.36v-6.53h1.36v2.64Z"/>
    <path d="M225.51,383.5h-9.66v-1.11h9.66v1.11ZM221.84,379.08c.3.39.72.73,1.27,1,.55.28,1.18.46,1.89.55l-.49,1.1c-.86-.12-1.63-.38-2.3-.77-.67-.39-1.18-.87-1.52-1.43-.34.57-.84,1.05-1.5,1.44s-1.43.64-2.31.77l-.52-1.1c.71-.09,1.35-.27,1.9-.55.55-.28.98-.61,1.27-1,.3-.39.45-.79.45-1.2v-.4h1.4v.4c0,.41.15.8.45,1.2ZM223.37,384.84c.65.34.97.83.97,1.45s-.32,1.11-.97,1.45-1.55.52-2.7.52-2.07-.17-2.72-.52c-.65-.34-.98-.83-.98-1.45s.33-1.11.98-1.45c.65-.34,1.56-.51,2.72-.51s2.05.17,2.7.51ZM218.94,385.6c-.4.16-.59.39-.59.69,0,.61.78.91,2.33.91s2.31-.3,2.31-.91c0-.3-.2-.53-.59-.69-.39-.16-.97-.24-1.72-.24s-1.33.08-1.73.24Z"/>
    <path d="M232.86,380.99c.43.58,1.03,1,1.82,1.25l-.7,1.1c-.56-.2-1.05-.49-1.45-.87-.41-.37-.73-.82-.96-1.33-.24.59-.57,1.1-.99,1.53-.42.43-.93.75-1.53.96l-.71-1.08c.83-.29,1.46-.76,1.89-1.42s.65-1.39.65-2.21v-1.02h1.36v1.15c0,.71.21,1.36.64,1.94ZM235.96,384.64c.63.37.95.88.95,1.52s-.31,1.17-.94,1.54c-.63.37-1.5.55-2.61.55s-2-.18-2.64-.55c-.64-.37-.96-.88-.96-1.54s.32-1.15.96-1.52c.64-.37,1.52-.55,2.63-.55s1.97.19,2.6.55ZM231.69,385.42c-.39.17-.58.42-.58.73,0,.33.19.59.57.75.38.17.94.25,1.67.25s1.27-.08,1.65-.25c.38-.17.57-.42.57-.75,0-.32-.19-.56-.57-.73-.38-.17-.93-.26-1.65-.26s-1.28.09-1.67.26ZM236.81,379.96h1.45v1.14h-1.45v2.75h-1.36v-6.53h1.36v2.64Z"/>
    <path d="M243.17,379.58h-2.99v1.78h2.8v1.07h-2.8v2.1c.7,0,1.29-.03,1.77-.05.48-.03.97-.08,1.47-.16l.11,1.12c-.57.1-1.15.16-1.72.2s-1.3.05-2.19.05h-.71v-7.2h4.27v1.08ZM247.67,388.26h-1.29v-5.55h-1.04v5.02h-1.28v-10.23h1.28v4.1h1.04v-4.28h1.29v10.94Z"/>
    <path d="M258.28,387h-9.69v-1.14h4.15v-1.77h-3v-3.59h6.05v-1.32h-6.06v-1.12h7.43v3.53h-6.06v1.39h6.3v1.12h-3.3v1.77h4.19v1.14Z"/>
    <path d="M270.86,384.56h-2.34v3.7h-1.37v-3.7h-2.3v3.7h-1.39v-3.7h-2.3v-1.11h9.7v1.11ZM267.98,378c.58.2,1.03.48,1.35.85.32.37.48.8.48,1.29s-.16.91-.48,1.28c-.32.37-.77.65-1.35.84-.58.19-1.25.29-2,.29s-1.41-.1-1.98-.29c-.57-.19-1.02-.47-1.34-.84s-.48-.79-.48-1.28.16-.92.48-1.29.77-.65,1.34-.85c.57-.2,1.23-.3,1.98-.3s1.41.1,2,.3ZM264.21,379.16c-.43.23-.65.56-.65.98s.22.74.65.96c.43.23,1.02.34,1.77.34s1.35-.12,1.79-.34c.44-.23.65-.55.65-.96s-.22-.75-.65-.98-1.03-.35-1.79-.35-1.34.12-1.77.35Z"/>
    <path d="M275.59,382.19c.22.59.53,1.11.93,1.58.41.47.89.82,1.44,1.06l-.71,1.1c-.61-.27-1.14-.68-1.59-1.21-.45-.53-.8-1.15-1.05-1.86-.25.76-.59,1.43-1.04,2.01-.45.59-.98,1.03-1.59,1.33l-.78-1.11c.55-.25,1.02-.63,1.43-1.13.41-.5.72-1.06.94-1.69.22-.62.32-1.25.32-1.88v-.87h-2.31v-1.12h6v1.12h-2.31v.87c0,.61.11,1.21.32,1.79ZM280.08,388.26h-1.36v-10.94h1.36v10.94Z"/>
    <path d="M287.53,380.11h-6.24v-1.12h2.47v-1.51h1.35v1.51h2.42v1.12ZM285.82,381.12c.41.22.73.53.96.92.23.39.34.83.34,1.33s-.11.95-.34,1.34-.55.7-.95.91c-.41.22-.86.32-1.37.32s-.97-.11-1.38-.32c-.41-.22-.73-.52-.96-.91-.23-.39-.34-.84-.34-1.34s.12-.94.35-1.33c.23-.39.55-.7.96-.92.41-.22.86-.33,1.37-.33s.96.11,1.37.33ZM283.44,382.32c-.26.27-.39.62-.39,1.05s.13.79.39,1.05.6.39,1.01.39.74-.13.99-.39c.26-.26.38-.61.38-1.05s-.13-.78-.39-1.05-.59-.4-.98-.4-.75.13-1.01.4ZM289.66,381.67h1.6v1.12h-1.6v5.47h-1.33v-10.94h1.33v4.35Z"/>
    <path d="M296.05,380.6c.44.58,1.07.99,1.89,1.25l-.65,1.07c-.6-.18-1.12-.47-1.56-.86s-.78-.84-1.03-1.36c-.25.58-.59,1.08-1.04,1.49s-.98.72-1.61.92l-.65-1.1c.83-.26,1.47-.7,1.92-1.32.45-.62.67-1.29.67-2.02v-1.02h1.39v1.02c0,.71.22,1.35.66,1.92ZM294.55,384.8h4.36v-1.11h1.33v4.44h-7.02v-4.44h1.32v1.11ZM298.91,387v-1.14h-4.36v1.14h4.36ZM300.24,383.2h-1.35v-5.88h1.35v5.88Z"/>
    <path d="M305.85,381.88c.22.64.53,1.21.93,1.7s.89.87,1.45,1.12l-.79,1.11c-.59-.28-1.11-.69-1.55-1.24-.44-.54-.78-1.17-1.03-1.9-.25.78-.6,1.47-1.05,2.06-.45.59-.99,1.04-1.62,1.33l-.81-1.16c.58-.26,1.08-.65,1.5-1.17.42-.52.74-1.11.95-1.77s.32-1.35.32-2.07v-1.72h1.36v1.72c0,.68.11,1.34.32,1.98ZM310.32,388.27h-1.36v-10.95h1.36v10.95Z"/>
    <path d="M318.45,378.3c.6.25,1.07.59,1.41,1.04s.52.96.52,1.55c0,.8-.31,1.47-.92,2-.61.53-1.41.84-2.39.94v1.98h4.19v1.14h-9.69v-1.14h4.15v-1.98c-.98-.11-1.77-.42-2.37-.94s-.9-1.19-.9-1.99c0-.58.17-1.1.52-1.55.34-.45.81-.8,1.41-1.04.6-.25,1.27-.37,2.02-.37s1.44.12,2.04.37ZM314.52,379.54c-.48.33-.73.78-.73,1.35s.24,1.04.73,1.37,1.11.5,1.89.5,1.42-.17,1.91-.5c.49-.33.73-.79.73-1.37s-.25-1.01-.74-1.35c-.49-.33-1.13-.5-1.9-.5s-1.41.17-1.89.5Z"/>
    <path class="st25" d="M59.96,404.58l-.86-.86,2.44-2.47h-8.31v-1.22h8.3l-2.43-2.44.86-.86,3.9,3.91-3.9,3.94Z"/>
    <path class="st25" d="M74.05,397.96h-6.24v-1.12h2.47v-1.51h1.35v1.51h2.42v1.12ZM72.34,398.98c.41.22.73.53.96.92.23.39.34.83.34,1.33s-.11.95-.34,1.34-.55.7-.95.91c-.41.22-.86.32-1.37.32s-.97-.11-1.38-.32c-.41-.22-.73-.52-.96-.91-.23-.39-.34-.84-.34-1.34s.12-.94.35-1.33c.23-.39.55-.7.96-.92.41-.22.86-.33,1.37-.33s.96.11,1.37.33ZM69.96,400.18c-.26.27-.39.62-.39,1.05s.13.79.39,1.05.6.39,1.01.39.74-.13.99-.39c.26-.26.38-.61.38-1.05s-.13-.78-.39-1.05-.59-.4-.98-.4-.75.13-1.01.4ZM76.17,399.52h1.6v1.12h-1.6v5.47h-1.33v-10.94h1.33v4.35Z"/>
    <path class="st25" d="M82.1,399.57c-.86,1-2.08,1.73-3.67,2.19l-.54-1.1c1.19-.34,2.13-.83,2.81-1.45.69-.62,1.09-1.35,1.2-2.17h-3.53v-1.12h5.01c0,1.44-.43,2.65-1.29,3.65ZM85.47,402.3c.64.4.96.93.96,1.61s-.32,1.22-.96,1.61-1.5.59-2.58.59c-.71,0-1.33-.09-1.86-.27s-.96-.44-1.26-.77c-.3-.33-.45-.72-.45-1.17s.15-.84.45-1.17c.3-.33.72-.59,1.26-.77s1.16-.27,1.86-.27c1.08,0,1.94.2,2.58.59ZM81.26,403.08c-.39.2-.59.47-.59.83s.2.63.59.83c.39.2.94.3,1.63.3s1.23-.1,1.62-.3c.39-.2.59-.47.59-.83s-.2-.63-.59-.83c-.39-.2-.93-.3-1.62-.3s-1.24.1-1.63.3ZM86.31,397.83h1.45v1.12h-1.45v2.6h-1.35v-6.38h1.35v2.66Z"/>
    <path class="st25" d="M94.94,398.85c.43.58,1.03,1,1.82,1.25l-.7,1.1c-.56-.2-1.05-.49-1.45-.87-.41-.37-.73-.82-.96-1.33-.24.59-.57,1.1-.99,1.53-.42.43-.93.75-1.53.96l-.71-1.08c.83-.29,1.46-.76,1.89-1.42s.65-1.39.65-2.21v-1.02h1.36v1.15c0,.71.21,1.36.64,1.94ZM98.04,402.49c.63.37.95.88.95,1.52s-.31,1.17-.94,1.54c-.63.37-1.5.55-2.61.55s-2-.18-2.64-.55c-.64-.37-.96-.88-.96-1.54s.32-1.15.96-1.52c.64-.37,1.52-.55,2.63-.55s1.97.19,2.6.55ZM93.77,403.28c-.39.17-.58.42-.58.73,0,.33.19.59.57.75.38.17.94.25,1.67.25s1.27-.08,1.65-.25c.38-.17.57-.42.57-.75,0-.32-.19-.56-.57-.73-.38-.17-.93-.26-1.65-.26s-1.28.09-1.67.26ZM98.89,397.82h1.45v1.14h-1.45v2.75h-1.36v-6.53h1.36v2.64Z"/>
    <path class="st25" d="M105.26,397.43h-2.99v1.78h2.8v1.07h-2.8v2.1c.7,0,1.29-.03,1.77-.05.48-.03.97-.08,1.47-.16l.11,1.12c-.57.1-1.15.16-1.72.2s-1.3.05-2.19.05h-.71v-7.2h4.27v1.08ZM109.75,406.11h-1.29v-5.55h-1.04v5.02h-1.28v-10.23h1.28v4.1h1.04v-4.28h1.29v10.94Z"/>
    <path class="st25" d="M122.83,402.38h-4.18v3.73h-1.35v-3.73h-4.14v-1.11h9.66v1.11ZM121.94,396.86h-3.16c.04.4.2.78.5,1.14s.71.67,1.24.93,1.13.44,1.82.54l-.49,1.08c-.91-.14-1.69-.41-2.36-.81-.67-.4-1.16-.9-1.49-1.49-.33.59-.82,1.09-1.48,1.49-.66.4-1.44.67-2.34.81l-.5-1.08c.69-.1,1.29-.28,1.81-.54.52-.26.93-.57,1.23-.93s.47-.74.5-1.14h-3.17v-1.07h7.89v1.07Z"/>
    <path class="st25" d="M128.46,397.42h-5.26v-1.07h1.97v-1.07h1.33v1.07h1.96v1.07ZM127.5,398.38c.43.35.64.81.64,1.38s-.21,1.02-.64,1.36-.98.52-1.67.52-1.2-.17-1.63-.52-.64-.8-.64-1.36.21-1.02.64-1.38c.43-.35.97-.53,1.63-.53s1.24.18,1.67.53ZM125.06,399.1c-.2.16-.3.38-.3.65s.1.49.3.65c.2.16.46.25.77.25.33,0,.6-.08.8-.25.2-.16.3-.38.3-.65s-.1-.49-.3-.65-.46-.25-.8-.25-.57.08-.77.25ZM131.42,402.7c.64.34.96.82.96,1.45s-.32,1.1-.96,1.44c-.64.34-1.54.52-2.7.52s-2.02-.17-2.66-.52c-.64-.34-.96-.82-.96-1.44s.32-1.11.96-1.45,1.53-.51,2.66-.51,2.05.17,2.7.51ZM126.45,404.15c0,.29.19.51.58.67.39.16.95.24,1.69.24s1.32-.08,1.71-.24c.39-.16.59-.38.59-.67,0-.62-.77-.92-2.3-.92s-2.27.31-2.27.92ZM132.32,402.03h-1.28v-2.95h-.98v2.59h-1.27v-6.29h1.27v2.58h.98v-2.79h1.28v6.86Z"/>
    <path class="st25" d="M140.19,399.74c.22.64.53,1.21.93,1.7s.89.87,1.45,1.12l-.79,1.11c-.59-.28-1.11-.69-1.55-1.24-.44-.54-.78-1.17-1.03-1.9-.25.78-.6,1.47-1.05,2.06-.45.59-.99,1.04-1.62,1.33l-.81-1.16c.58-.26,1.08-.65,1.5-1.17.42-.52.74-1.11.95-1.77s.32-1.35.32-2.07v-1.72h1.36v1.72c0,.68.11,1.34.32,1.98ZM144.66,406.13h-1.36v-10.95h1.36v10.95Z"/>
    <path class="st25" d="M156.91,396.81c0,.7-.02,1.31-.05,1.85-.03.54-.11,1.15-.23,1.84h1.44v1.12h-4.19v4.51h-1.36v-4.51h-4.11v-1.12h6.84c.13-.67.22-1.27.25-1.81.03-.54.05-1.12.05-1.76h-6.01v-1.1h7.36v.98Z"/>
    <path class="st25" d="M168.18,401.5h-9.69v-1.11h4.18v-1.02h-2.99v-3.71h7.32v1.07h-5.97v1.56h6.02v1.08h-3.05v1.02h4.18v1.11ZM166.02,402.64c.65.35.97.85.97,1.48s-.33,1.12-.98,1.47c-.65.35-1.55.52-2.7.52s-2.06-.17-2.72-.52-.98-.84-.98-1.47.33-1.13.98-1.48c.66-.35,1.56-.53,2.72-.53s2.05.18,2.7.53ZM161.58,403.42c-.39.16-.59.39-.59.7,0,.62.78.94,2.33.94s2.31-.31,2.31-.94c0-.31-.2-.54-.59-.7-.39-.16-.97-.24-1.72-.24s-1.35.08-1.74.24Z"/>
    <path class="st25" d="M173.63,399.14h-3.29v1.32c.88,0,1.59-.03,2.13-.07.54-.04,1.08-.11,1.62-.21l.12,1.12c-.6.11-1.21.18-1.84.21s-1.49.05-2.59.05h-.79v-3.46h3.29v-1.2h-3.3v-1.08h4.65v3.32ZM177.47,406.11h-1.36v-2.56h-5.89v-1.12h7.25v3.69ZM177.47,401.91h-1.36v-1.77h-1.82v-1.11h1.82v-1.2h-1.82v-1.11h1.82v-1.53h1.36v6.73Z"/>
    <path class="st25" d="M185.59,398.85c.43.58,1.03,1,1.82,1.25l-.7,1.1c-.56-.2-1.05-.49-1.45-.87-.41-.37-.73-.82-.96-1.33-.24.59-.57,1.1-.99,1.53-.42.43-.93.75-1.53.96l-.71-1.08c.83-.29,1.46-.76,1.89-1.42s.65-1.39.65-2.21v-1.02h1.36v1.15c0,.71.21,1.36.64,1.94ZM188.68,402.49c.63.37.95.88.95,1.52s-.31,1.17-.94,1.54c-.63.37-1.5.55-2.61.55s-2-.18-2.64-.55c-.64-.37-.96-.88-.96-1.54s.32-1.15.96-1.52c.64-.37,1.52-.55,2.63-.55s1.97.19,2.6.55ZM184.42,403.28c-.39.17-.58.42-.58.73,0,.33.19.59.57.75.38.17.94.25,1.67.25s1.27-.08,1.65-.25c.38-.17.57-.42.57-.75,0-.32-.19-.56-.57-.73-.38-.17-.93-.26-1.65-.26s-1.28.09-1.67.26ZM189.53,397.82h1.45v1.14h-1.45v2.75h-1.36v-6.53h1.36v2.64Z"/>
    <path class="st25" d="M195.87,398.23c.44.58,1.07,1,1.89,1.24l-.66,1.08c-.6-.18-1.11-.47-1.55-.85-.43-.38-.77-.84-1.02-1.37-.25.56-.59,1.06-1.04,1.47s-.98.73-1.6.93l-.67-1.1c.83-.26,1.47-.7,1.93-1.32.46-.63.69-1.31.69-2.05v-.83h1.37v.83c0,.72.22,1.37.66,1.96ZM200.07,404.11h-5.71v.83h6v1.08h-7.31v-2.93h5.67v-.77h-5.71v-1.08h7.06v2.87ZM200.06,400.74h-1.35v-5.56h1.35v5.56Z"/>
    <path class="st25" d="M210.67,400.59l.11,1.02c-.88.18-1.8.3-2.76.37v3.8h-1.36v-3.71c-.85.04-1.74.05-2.67.05l-.16-1.14c2.89,0,5.17-.13,6.84-.4ZM208.7,395.93c.42.2.75.47.98.82.23.35.35.75.35,1.2s-.12.84-.36,1.19-.57.62-.98.82c-.42.19-.89.29-1.42.29s-1-.1-1.42-.29c-.42-.19-.75-.47-.98-.82s-.36-.75-.36-1.19.12-.85.35-1.2c.23-.35.56-.62.98-.82.42-.2.9-.3,1.43-.3s1,.1,1.43.3ZM206.22,397.08c-.27.22-.4.5-.4.87s.13.65.4.86c.27.21.62.32,1.05.32s.8-.11,1.08-.32c.28-.21.42-.5.42-.86s-.14-.65-.42-.87c-.28-.22-.64-.32-1.08-.32s-.78.11-1.05.32ZM212.69,406.1h-1.35v-10.91h1.35v10.91Z"/>
    <path class="st25" d="M220.13,397.29h-6.21v-1.11h2.44v-1.1h1.33v1.1h2.43v1.11ZM218.33,397.96c.38.17.67.4.89.69s.32.63.32,1.01c0,.58-.23,1.05-.69,1.42-.46.37-1.06.55-1.8.55-.48,0-.92-.08-1.3-.24s-.68-.39-.9-.69c-.22-.3-.32-.64-.32-1.03s.11-.71.32-1c.22-.3.52-.53.9-.7.38-.17.82-.25,1.3-.25s.92.08,1.29.25ZM222.79,405.98h-7.06v-3.7h7.06v3.7ZM216.14,398.99c-.22.16-.33.38-.33.67s.11.52.33.69c.22.17.52.25.9.25s.67-.08.89-.25c.22-.17.33-.4.33-.69s-.11-.52-.33-.67c-.22-.16-.52-.24-.89-.24s-.68.08-.9.24ZM217.07,404.87h4.4v-1.49h-4.4v1.49ZM222.79,401.78h-1.36v-2.23h-1.47v-1.12h1.47v-3.25h1.36v6.61Z"/>
    <path class="st25" d="M228.51,396.44c.42.32.75.77.98,1.35.24.59.36,1.27.36,2.04s-.12,1.46-.36,2.04-.57,1.04-.98,1.35-.89.48-1.42.48-1.02-.16-1.44-.48-.75-.77-.99-1.35-.36-1.27-.36-2.04.12-1.46.36-2.04c.24-.58.57-1.04.99-1.35.42-.32.9-.48,1.44-.48s1,.16,1.42.48ZM226.01,397.9c-.26.46-.4,1.11-.4,1.94s.13,1.46.4,1.92c.26.46.63.69,1.08.69s.79-.23,1.06-.69c.26-.46.4-1.1.4-1.92s-.13-1.46-.4-1.93c-.26-.47-.62-.7-1.06-.7s-.82.23-1.08.69ZM232.8,406.13h-1.36v-10.95h1.36v10.95Z"/>
    <path class="st25" d="M241.08,396.09c.44.22.78.54,1.02.93s.37.85.37,1.35-.12.94-.37,1.33c-.25.4-.59.71-1.02.93-.44.22-.92.33-1.46.33s-1.03-.11-1.47-.33c-.44-.22-.79-.53-1.04-.93-.25-.4-.38-.84-.38-1.33s.13-.95.38-1.35.6-.71,1.04-.93.93-.34,1.47-.34,1.02.11,1.46.34ZM240.68,403.64c.22.44.54.79.96,1.08.44-.31.77-.68.99-1.12.22-.44.33-.88.33-1.33v-.42h1.33v.42c0,.6.17,1.14.51,1.63.34.48.84.84,1.51,1.06l-.65,1c-.49-.18-.91-.43-1.26-.76-.35-.33-.62-.72-.81-1.17-.39.98-1.03,1.66-1.93,2.04-.47-.19-.87-.45-1.2-.79-.33-.34-.58-.74-.76-1.19-.41.9-1.08,1.52-2.03,1.88l-.66-1c.66-.24,1.17-.6,1.51-1.1.35-.49.52-1.02.52-1.59v-.42h1.29v.42c0,.48.11.93.33,1.37ZM238.5,397.31c-.29.26-.43.62-.43,1.06s.14.79.43,1.05.66.39,1.12.39.82-.13,1.1-.39c.29-.26.43-.61.43-1.05s-.14-.79-.43-1.06c-.29-.26-.65-.4-1.1-.4s-.83.13-1.12.4ZM245.39,401.37h-1.35v-6.18h1.35v6.18Z"/>
    <path class="st25" d="M256.3,401.11h-9.66v-1.1h9.66v1.1ZM252.62,396.85c.29.38.72.7,1.26.97.55.27,1.18.45,1.9.54l-.46,1.08c-.89-.12-1.67-.37-2.33-.75-.67-.37-1.17-.84-1.51-1.41-.34.56-.85,1.02-1.51,1.4-.67.38-1.44.63-2.32.75l-.5-1.08c.73-.1,1.37-.28,1.92-.55.55-.27.97-.59,1.27-.96.3-.37.44-.76.44-1.16v-.4h1.4v.4c0,.4.15.78.44,1.16ZM249.13,402.76h4.59v-1.02h1.33v4.24h-7.25v-4.24h1.33v1.02ZM253.72,404.89v-1.07h-4.59v1.07h4.59Z"/>
    <path class="st25" d="M258.67,402.2c1.66-.03,3.2-.19,4.64-.49l.17,1.15c-1.61.34-3.36.52-5.25.52h-.92v-7.15h1.36v5.97ZM265.58,406.11h-1.35v-10.94h1.35v10.94Z"/>
    <path class="st25" d="M272.22,397.33h-3.62v4.98c.86,0,1.63-.04,2.31-.09.68-.05,1.36-.14,2.03-.26l.16,1.18c-.77.13-1.52.22-2.27.26-.75.04-1.65.07-2.7.07h-.89v-7.25h4.97v1.12ZM275.12,399.31h1.61v1.12h-1.61v5.69h-1.35v-10.95h1.35v4.14Z"/>
    <path d="M38.7,417.42c.29-.28.44-.64.44-1.1,0-.48-.13-.86-.38-1.12s-.63-.39-1.14-.39c-.46,0-.83.13-1.12.38-.29.26-.43.6-.43,1.04h-1.45c0-.48.13-.92.38-1.32.26-.4.61-.71,1.06-.93s.96-.34,1.53-.34c.92,0,1.64.23,2.18.69.54.46.81,1.12.81,1.99,0,.4-.13.79-.38,1.17-.25.38-.61.68-1.09.88.55.18.96.46,1.22.87.26.4.39.85.39,1.34,0,.57-.13,1.07-.4,1.49-.27.42-.64.74-1.11.96-.47.22-1.01.33-1.61.33-.56,0-1.07-.1-1.54-.31-.47-.21-.85-.51-1.12-.91-.28-.4-.42-.88-.42-1.43h1.45c0,.45.15.81.45,1.09.3.28.7.42,1.19.42.52,0,.93-.14,1.22-.42.29-.28.44-.68.44-1.2s-.16-.95-.49-1.22c-.33-.27-.78-.4-1.36-.4h-.9v-1.14h.9c.56,0,.98-.14,1.27-.42Z"/>
    <path d="M42.37,421.91c.15-.16.36-.24.62-.24s.47.08.63.24.23.36.23.59-.08.43-.22.57c-.15.15-.36.22-.63.22s-.47-.07-.62-.22c-.15-.14-.22-.34-.22-.57s.07-.44.22-.59Z"/>
    <path d="M61.03,421.05h-1.36v-2.68h-2.48c-.26.29-.56.52-.92.68-.36.16-.75.24-1.18.24-.52,0-.99-.12-1.42-.36s-.76-.57-1.01-.99c-.25-.42-.37-.89-.37-1.42s.12-1.02.37-1.45.58-.77,1.01-1.01.9-.36,1.42-.36c.42,0,.82.08,1.18.24.37.16.68.39.93.69h2.47v-1.59h1.36v8.01ZM53.99,415.36c-.28.29-.42.67-.42,1.16s.14.84.43,1.13c.29.29.65.43,1.09.43s.79-.14,1.08-.43c.29-.29.43-.66.43-1.13s-.14-.87-.43-1.16c-.29-.29-.65-.43-1.08-.43s-.81.14-1.1.43ZM61.3,423.76h-7.23v-3.5h1.33v2.39h5.89v1.11ZM57.86,416.52c0,.23-.03.48-.09.74h1.9v-1.52h-1.9c.06.24.09.5.09.78Z"/>
    <path d="M71.89,419.5h-9.67v-1.11h4.15v-1.51h1.35v1.51h4.18v1.11ZM68.17,414.87c.29.4.71.73,1.26,1.01.55.28,1.18.46,1.92.55l-.52,1.08c-.86-.13-1.63-.39-2.29-.78s-1.16-.87-1.49-1.44c-.34.57-.85,1.05-1.51,1.44s-1.42.65-2.29.78l-.5-1.08c.71-.09,1.34-.27,1.89-.55.55-.28.97-.62,1.27-1.02.3-.4.45-.82.45-1.25v-.38h1.37v.38c0,.45.15.87.44,1.27ZM70.72,423.97h-1.37v-2.52h-6.03v-1.07h7.4v3.59Z"/>
    <path d="M76.87,416.82c.43.6,1.03,1.04,1.82,1.31l-.66,1.07c-.57-.19-1.07-.48-1.49-.87s-.75-.84-.98-1.36c-.24.58-.58,1.08-1.02,1.51-.44.43-.96.74-1.57.94l-.69-1.08c.82-.28,1.45-.74,1.9-1.38s.67-1.33.67-2.07v-.09h-2.18v-1.11h5.72v1.11h-2.15v.08c0,.7.21,1.34.64,1.94ZM81.2,423.97h-1.36v-2.79h-5.88v-1.12h7.24v3.91ZM81.2,419.54h-1.36v-2.68h-1.74v-1.14h1.74v-2.7h1.36v6.51Z"/>
    <path d="M86.9,414.11c.44.23.78.56,1.03.98.25.42.38.89.38,1.41s-.13,1-.38,1.42c-.25.42-.59.74-1.03.98s-.92.35-1.46.35-1.02-.12-1.46-.35-.78-.56-1.03-.98c-.25-.42-.38-.89-.38-1.42s.13-.99.38-1.4.6-.74,1.04-.98.93-.36,1.45-.36,1.02.12,1.46.35ZM84.33,415.38c-.29.28-.44.65-.44,1.11s.15.84.44,1.12c.29.28.66.42,1.11.42s.81-.14,1.1-.42c.29-.28.44-.66.44-1.12s-.15-.83-.44-1.11-.66-.42-1.1-.42-.82.14-1.11.42ZM91.5,423.76h-7.31v-3.62h1.36v2.51h5.95v1.11ZM91.22,420.93h-1.36v-7.89h1.36v7.89Z"/>
    <path d="M99.4,416.7c.43.58,1.03,1,1.82,1.25l-.7,1.1c-.56-.2-1.05-.49-1.45-.87-.41-.37-.73-.82-.96-1.33-.24.59-.57,1.1-.99,1.53-.42.43-.93.75-1.53.96l-.71-1.08c.83-.29,1.46-.76,1.89-1.42s.65-1.39.65-2.21v-1.02h1.36v1.15c0,.71.21,1.36.64,1.94ZM102.5,420.35c.63.37.95.88.95,1.52s-.31,1.17-.94,1.54c-.63.37-1.5.55-2.61.55s-2-.18-2.64-.55c-.64-.37-.96-.88-.96-1.54s.32-1.15.96-1.52c.64-.37,1.52-.55,2.63-.55s1.97.19,2.6.55ZM98.23,421.14c-.39.17-.58.42-.58.73,0,.33.19.59.57.75.38.17.94.25,1.67.25s1.27-.08,1.65-.25c.38-.17.57-.42.57-.75,0-.32-.19-.56-.57-.73-.38-.17-.93-.26-1.65-.26s-1.28.09-1.67.26ZM103.34,415.67h1.45v1.14h-1.45v2.75h-1.36v-6.53h1.36v2.64Z"/>
    <path d="M114.7,419.21h-9.66v-1.11h9.66v1.11ZM111.03,414.79c.3.39.72.73,1.27,1,.55.28,1.18.46,1.89.55l-.49,1.1c-.86-.12-1.63-.38-2.3-.77-.67-.39-1.18-.87-1.52-1.43-.34.57-.84,1.05-1.5,1.44s-1.43.64-2.31.77l-.52-1.1c.71-.09,1.35-.27,1.9-.55.55-.28.98-.61,1.27-1,.3-.39.45-.79.45-1.2v-.4h1.4v.4c0,.41.15.8.45,1.2ZM112.57,420.55c.65.34.97.83.97,1.45s-.32,1.11-.97,1.45-1.55.52-2.7.52-2.07-.17-2.72-.52c-.65-.34-.98-.83-.98-1.45s.33-1.11.98-1.45c.65-.34,1.56-.51,2.72-.51s2.05.17,2.7.51ZM108.14,421.31c-.4.16-.59.39-.59.69,0,.61.78.91,2.33.91s2.31-.3,2.31-.91c0-.3-.2-.53-.59-.69-.39-.16-.97-.24-1.72-.24s-1.33.08-1.73.24Z"/>
    <path d="M122.43,413.78l-3.63,9.45h-1.41l3.63-9.45h1.41Z"/>
    <path d="M131.37,415.82h-6.24v-1.12h2.47v-1.51h1.35v1.51h2.42v1.12ZM129.65,416.84c.41.22.73.53.96.92.23.39.34.83.34,1.33s-.11.95-.34,1.34-.55.7-.95.91c-.41.22-.86.32-1.37.32s-.97-.11-1.38-.32c-.41-.22-.73-.52-.96-.91-.23-.39-.34-.84-.34-1.34s.12-.94.35-1.33c.23-.39.55-.7.96-.92.41-.22.86-.33,1.37-.33s.96.11,1.37.33ZM127.28,418.03c-.26.27-.39.62-.39,1.05s.13.79.39,1.05.6.39,1.01.39.74-.13.99-.39c.26-.26.38-.61.38-1.05s-.13-.78-.39-1.05-.59-.4-.98-.4-.75.13-1.01.4ZM133.49,417.38h1.6v1.12h-1.6v5.47h-1.33v-10.94h1.33v4.35Z"/>
    <path d="M139.42,417.42c-.86,1-2.08,1.73-3.67,2.19l-.54-1.1c1.19-.34,2.13-.83,2.81-1.45.69-.62,1.09-1.35,1.2-2.17h-3.53v-1.12h5.01c0,1.44-.43,2.65-1.29,3.65ZM142.79,420.15c.64.4.96.93.96,1.61s-.32,1.22-.96,1.61-1.5.59-2.58.59c-.71,0-1.33-.09-1.86-.27s-.96-.44-1.26-.77c-.3-.33-.45-.72-.45-1.17s.15-.84.45-1.17c.3-.33.72-.59,1.26-.77s1.16-.27,1.86-.27c1.08,0,1.94.2,2.58.59ZM138.57,420.94c-.39.2-.59.47-.59.83s.2.63.59.83c.39.2.94.3,1.63.3s1.23-.1,1.62-.3c.39-.2.59-.47.59-.83s-.2-.63-.59-.83c-.39-.2-.93-.3-1.62-.3s-1.24.1-1.63.3ZM143.63,415.69h1.45v1.12h-1.45v2.6h-1.35v-6.38h1.35v2.66Z"/>
    <path d="M157.51,422.66h-9.69v-1.12h4.16v-2.51h1.36v2.51h4.16v1.12ZM156.68,415.03h-3.3c.02.52.19,1.01.52,1.48.33.47.77.86,1.33,1.18.56.32,1.2.54,1.9.64l-.53,1.1c-.9-.17-1.69-.48-2.38-.95-.69-.47-1.21-1.04-1.55-1.7-.33.69-.84,1.27-1.53,1.75-.68.48-1.47.8-2.36.97l-.53-1.1c.7-.11,1.32-.34,1.88-.67.55-.33.99-.74,1.31-1.21.32-.47.49-.97.51-1.49h-3.3v-1.11h8.03v1.11Z"/>
    <path d="M162.39,416.85c.42.59,1.04,1.02,1.85,1.29l-.67,1.07c-.58-.2-1.08-.49-1.5-.87-.42-.38-.75-.83-.98-1.35-.5,1.2-1.36,2-2.58,2.4l-.7-1.06c.83-.28,1.46-.74,1.91-1.37.44-.63.67-1.32.67-2.08v-.08h-2.22v-1.11h5.75v1.11h-2.15v.09c0,.71.21,1.35.63,1.94ZM166.29,423.97h-1.36v-2.74h-5.71v-1.11h7.07v3.85ZM166.29,415.75h1.45v1.15h-1.45v2.72h-1.36v-6.59h1.36v2.72Z"/>
    <path d="M177.65,418.63h-9.66v-1.1h9.66v1.1ZM175.64,413.68c.67.32,1,.78,1,1.38s-.33,1.06-1,1.39c-.67.33-1.6.49-2.81.49s-2.16-.16-2.83-.49-1-.79-1-1.39.33-1.06,1-1.38c.67-.32,1.61-.48,2.83-.48s2.14.16,2.81.48ZM176.46,422.04h-5.99v.78h6.26v1.06h-7.6v-2.81h5.99v-.7h-6.01v-1.02h7.35v2.7ZM171.02,414.44c-.41.15-.61.36-.61.63,0,.29.2.51.6.65.4.14,1.01.21,1.82.21s1.42-.07,1.82-.21c.4-.14.6-.36.6-.65,0-.27-.2-.48-.61-.63-.41-.14-1.01-.22-1.81-.22s-1.39.07-1.8.22Z"/>
    <path d="M186.77,415.82h-6.24v-1.12h2.47v-1.51h1.35v1.51h2.42v1.12ZM185.06,416.84c.41.22.73.53.96.92.23.39.34.83.34,1.33s-.11.95-.34,1.34-.55.7-.95.91c-.41.22-.86.32-1.37.32s-.97-.11-1.38-.32c-.41-.22-.73-.52-.96-.91-.23-.39-.34-.84-.34-1.34s.12-.94.35-1.33c.23-.39.55-.7.96-.92.41-.22.86-.33,1.37-.33s.96.11,1.37.33ZM182.68,418.03c-.26.27-.39.62-.39,1.05s.13.79.39,1.05.6.39,1.01.39.74-.13.99-.39c.26-.26.38-.61.38-1.05s-.13-.78-.39-1.05-.59-.4-.98-.4-.75.13-1.01.4ZM188.9,417.38h1.6v1.12h-1.6v5.47h-1.33v-10.94h1.33v4.35Z"/>
    <path d="M194.99,417.9c.22.59.53,1.11.93,1.58.41.47.89.82,1.44,1.06l-.71,1.1c-.61-.27-1.14-.68-1.59-1.21-.45-.53-.8-1.15-1.05-1.86-.25.76-.59,1.43-1.04,2.01-.45.59-.98,1.03-1.59,1.33l-.78-1.11c.55-.25,1.02-.63,1.43-1.13.41-.5.72-1.06.94-1.69.22-.62.32-1.25.32-1.88v-.87h-2.31v-1.12h6v1.12h-2.31v.87c0,.61.11,1.21.32,1.79ZM199.48,423.97h-1.36v-10.94h1.36v10.94Z"/>
    <path d="M208.65,421.26h-5.05v-7.17h5.05v7.17ZM204.95,420.17h2.35v-5h-2.35v5ZM211.56,417.23h1.61v1.15h-1.61v5.59h-1.35v-10.94h1.35v4.2Z"/>
    <path d="M217.95,416.31c.44.58,1.07.99,1.89,1.25l-.65,1.07c-.6-.18-1.12-.47-1.56-.86s-.78-.84-1.03-1.36c-.25.58-.59,1.08-1.04,1.49s-.98.72-1.61.92l-.65-1.1c.83-.26,1.47-.7,1.92-1.32.45-.62.67-1.29.67-2.02v-1.02h1.39v1.02c0,.71.22,1.35.66,1.92ZM216.44,420.51h4.36v-1.11h1.33v4.44h-7.02v-4.44h1.32v1.11ZM220.8,422.72v-1.14h-4.36v1.14h4.36ZM222.14,418.91h-1.35v-5.88h1.35v5.88Z"/>
    <path d="M227.75,417.6c.22.64.53,1.21.93,1.7s.89.87,1.45,1.12l-.79,1.11c-.59-.28-1.11-.69-1.55-1.24-.44-.54-.78-1.17-1.03-1.9-.25.78-.6,1.47-1.05,2.06-.45.59-.99,1.04-1.62,1.33l-.81-1.16c.58-.26,1.08-.65,1.5-1.17.42-.52.74-1.11.95-1.77s.32-1.35.32-2.07v-1.72h1.36v1.72c0,.68.11,1.34.32,1.98ZM232.22,423.98h-1.36v-10.95h1.36v10.95Z"/>
    <path d="M240.35,414.01c.6.25,1.07.59,1.41,1.04s.52.96.52,1.55c0,.8-.31,1.47-.92,2-.61.53-1.41.84-2.39.94v1.98h4.19v1.14h-9.69v-1.14h4.15v-1.98c-.98-.11-1.77-.42-2.37-.94s-.9-1.19-.9-1.99c0-.58.17-1.1.52-1.55.34-.45.81-.8,1.41-1.04.6-.25,1.27-.37,2.02-.37s1.44.12,2.04.37ZM236.42,415.25c-.48.33-.73.78-.73,1.35s.24,1.04.73,1.37,1.11.5,1.89.5,1.42-.17,1.91-.5c.49-.33.73-.79.73-1.37s-.25-1.01-.74-1.35c-.49-.33-1.13-.5-1.9-.5s-1.41.17-1.89.5Z"/>
    <path d="M38.38,438.93h-4.16l-.03-.86,4.14-6.43h1.49v6.14h1.23v1.15h-1.23v2.15h-1.44v-2.15ZM38.38,433.58l-.13.24-2.52,3.96h2.66v-4.2Z"/>
    <path d="M42.37,439.76c.15-.16.36-.24.62-.24s.47.08.63.24.23.36.23.59-.08.43-.22.57c-.15.15-.36.22-.63.22s-.47-.07-.62-.22c-.15-.14-.22-.34-.22-.57s.07-.44.22-.59Z"/>
    <path d="M56.71,434.68c.43.6,1.03,1.04,1.82,1.31l-.66,1.07c-.57-.19-1.07-.48-1.49-.87s-.75-.84-.98-1.36c-.24.58-.58,1.08-1.02,1.51-.44.43-.96.74-1.57.94l-.69-1.08c.82-.28,1.45-.74,1.9-1.38s.67-1.33.67-2.07v-.09h-2.18v-1.11h5.72v1.11h-2.15v.08c0,.7.21,1.34.64,1.94ZM61.03,441.83h-1.36v-2.79h-5.88v-1.12h7.24v3.91ZM61.03,437.4h-1.36v-2.68h-1.74v-1.14h1.74v-2.7h1.36v6.51Z"/>
    <path d="M66.79,434.67c.43.6,1.03,1.04,1.82,1.31l-.66,1.1c-.56-.2-1.05-.5-1.47-.89s-.75-.85-.98-1.37c-.24.59-.58,1.1-1.02,1.54-.44.44-.97.77-1.59,1l-.7-1.08c.83-.29,1.46-.76,1.91-1.41.44-.65.67-1.36.67-2.13v-.03h-2.18v-1.12h5.72v1.12h-2.15c0,.71.21,1.36.64,1.96ZM70.17,438.21c.64.37.96.88.96,1.54s-.32,1.16-.96,1.53-1.52.55-2.65.55-2.02-.18-2.66-.55c-.64-.37-.96-.87-.96-1.53s.32-1.17.96-1.54c.64-.37,1.53-.55,2.66-.55s2.01.18,2.65.55ZM65.83,438.99c-.4.18-.59.43-.59.77s.2.58.59.75c.4.18.96.26,1.69.26s1.29-.09,1.69-.26c.39-.18.59-.43.59-.75s-.2-.59-.59-.77c-.39-.18-.95-.26-1.69-.26s-1.29.09-1.69.26ZM71.11,437.39h-1.36v-2.66h-1.77v-1.14h1.77v-2.71h1.36v6.5Z"/>
    <path d="M79.37,434.68c.43.6,1.03,1.04,1.82,1.31l-.66,1.07c-.57-.19-1.07-.48-1.49-.87s-.75-.84-.98-1.36c-.24.58-.58,1.08-1.02,1.51-.44.43-.96.74-1.57.94l-.69-1.08c.82-.28,1.45-.74,1.9-1.38s.67-1.33.67-2.07v-.09h-2.18v-1.11h5.72v1.11h-2.15v.08c0,.7.21,1.34.64,1.94ZM83.69,441.83h-1.36v-2.79h-5.88v-1.12h7.24v3.91ZM83.69,437.4h-1.36v-2.68h-1.74v-1.14h1.74v-2.7h1.36v6.51Z"/>
    <path d="M88.73,436.42c.36.81.91,1.41,1.66,1.81l-.78,1.06c-.95-.51-1.63-1.39-2.04-2.64-.38,1.42-1.06,2.43-2.05,3.04l-.83-1.07c.76-.43,1.31-1.08,1.67-1.96.35-.87.53-1.87.53-3v-.49h-1.86v-1.11h4.88v1.11h-1.7v.49c0,1.03.18,1.95.54,2.76ZM94.08,441.83h-1.29v-5.54h-1.03v5.01h-1.27v-10.23h1.27v4.08h1.03v-4.27h1.29v10.94Z"/>
    <path d="M100.22,434.73h-3.49v1.11c.96,0,1.77-.04,2.43-.08s1.33-.13,2-.25l.13,1.11c-.73.14-1.47.24-2.21.28-.74.05-1.68.07-2.83.07h-.89v-3.29h3.53v-1.04h-3.54v-1.08h4.86v3.17ZM102.49,438.26c.64.37.96.88.96,1.52s-.32,1.13-.96,1.49c-.64.36-1.51.54-2.62.54s-1.98-.18-2.62-.54c-.63-.36-.95-.85-.95-1.49s.32-1.15.95-1.52c.63-.37,1.51-.55,2.62-.55s1.98.19,2.62.55ZM98.19,439.03c-.39.17-.59.42-.59.75s.2.56.59.73c.39.17.95.26,1.67.26s1.29-.09,1.67-.26c.38-.17.57-.42.57-.73s-.19-.57-.57-.75c-.38-.17-.94-.26-1.67-.26s-1.28.09-1.67.26ZM104.82,433.58h-1.48v1.15h1.48v1.15h-1.48v1.61h-1.35v-6.59h1.35v1.53h1.48v1.15Z"/>
    <path d="M114.7,436.49h-9.66v-1.1h9.66v1.1ZM112.69,431.54c.67.32,1,.78,1,1.38s-.33,1.06-1,1.39c-.67.33-1.6.49-2.81.49s-2.16-.16-2.83-.49-1-.79-1-1.39.33-1.06,1-1.38c.67-.32,1.61-.48,2.83-.48s2.14.16,2.81.48ZM113.52,439.9h-5.99v.78h6.26v1.06h-7.6v-2.81h5.99v-.7h-6.01v-1.02h7.35v2.7ZM108.08,432.29c-.41.15-.61.36-.61.63,0,.29.2.51.6.65.4.14,1.01.21,1.82.21s1.42-.07,1.82-.21c.4-.14.6-.36.6-.65,0-.27-.2-.48-.61-.63-.41-.14-1.01-.22-1.81-.22s-1.39.07-1.8.22Z"/>
    <path d="M127.31,440.54h-9.69v-1.14h4.16v-2.23h1.35v2.23h4.18v1.14ZM126.45,433.57h-3.29c.04.45.21.88.52,1.28.31.41.74.75,1.29,1.04s1.2.48,1.95.57l-.5,1.08c-.92-.13-1.72-.4-2.4-.79s-1.2-.89-1.55-1.48c-.35.59-.87,1.08-1.55,1.48-.68.4-1.48.66-2.4.79l-.5-1.08c.75-.1,1.4-.29,1.96-.57.55-.29.99-.63,1.29-1.04.31-.41.48-.83.52-1.28h-3.28v-1.11h3.29v-1.4h1.35v1.4h3.32v1.11Z"/>
    <path d="M130.98,438.35c1.16-.04,2.22-.13,3.16-.25l.08,1.04c-.98.17-2,.28-3.07.33-1.07.05-2.2.08-3.4.08l-.13-1.12,2.02-.03v-3.26h1.33v3.21ZM133.65,432.8c0,.72-.02,1.41-.05,2.05-.04.64-.12,1.37-.25,2.19l-1.32-.12c.19-1.21.28-2.47.28-3.79h-4.12v-1.12h5.47v.79ZM136.04,435.33h1.49v1.16h-1.49v5.34h-1.36v-10.94h1.36v4.44Z"/>
    <path d="M143.98,433.67h-6.24v-1.12h2.47v-1.51h1.35v1.51h2.42v1.12ZM142.27,434.69c.41.22.73.53.96.92.23.39.34.83.34,1.33s-.11.95-.34,1.34-.55.7-.95.91c-.41.22-.86.32-1.37.32s-.97-.11-1.38-.32c-.41-.22-.73-.52-.96-.91-.23-.39-.34-.84-.34-1.34s.12-.94.35-1.33c.23-.39.55-.7.96-.92.41-.22.86-.33,1.37-.33s.96.11,1.37.33ZM139.89,435.89c-.26.27-.39.62-.39,1.05s.13.79.39,1.05.6.39,1.01.39.74-.13.99-.39c.26-.26.38-.61.38-1.05s-.13-.78-.39-1.05-.59-.4-.98-.4-.75.13-1.01.4ZM146.11,435.23h1.6v1.12h-1.6v5.47h-1.33v-10.94h1.33v4.35Z"/>
    <path d="M152.21,435.75c.22.59.53,1.11.93,1.58.41.47.89.82,1.44,1.06l-.71,1.1c-.61-.27-1.14-.68-1.59-1.21-.45-.53-.8-1.15-1.05-1.86-.25.76-.59,1.43-1.04,2.01-.45.59-.98,1.03-1.59,1.33l-.78-1.11c.55-.25,1.02-.63,1.43-1.13.41-.5.72-1.06.94-1.69.22-.62.32-1.25.32-1.88v-.87h-2.31v-1.12h6v1.12h-2.31v.87c0,.61.11,1.21.32,1.79ZM156.7,441.83h-1.36v-10.94h1.36v10.94Z"/>
    <path d="M165.86,439.12h-5.05v-7.17h5.05v7.17ZM162.17,438.02h2.35v-5h-2.35v5ZM168.77,435.09h1.61v1.15h-1.61v5.59h-1.35v-10.94h1.35v4.2Z"/>
    <path d="M175.17,434.17c.44.58,1.07.99,1.89,1.25l-.65,1.07c-.6-.18-1.12-.47-1.56-.86s-.78-.84-1.03-1.36c-.25.58-.59,1.08-1.04,1.49s-.98.72-1.61.92l-.65-1.1c.83-.26,1.47-.7,1.92-1.32.45-.62.67-1.29.67-2.02v-1.02h1.39v1.02c0,.71.22,1.35.66,1.92ZM173.66,438.36h4.36v-1.11h1.33v4.44h-7.02v-4.44h1.32v1.11ZM178.02,440.57v-1.14h-4.36v1.14h4.36ZM179.36,436.77h-1.35v-5.88h1.35v5.88Z"/>
    <path d="M184.96,435.45c.22.64.53,1.21.93,1.7s.89.87,1.45,1.12l-.79,1.11c-.59-.28-1.11-.69-1.55-1.24-.44-.54-.78-1.17-1.03-1.9-.25.78-.6,1.47-1.05,2.06-.45.59-.99,1.04-1.62,1.33l-.81-1.16c.58-.26,1.08-.65,1.5-1.17.42-.52.74-1.11.95-1.77s.32-1.35.32-2.07v-1.72h1.36v1.72c0,.68.11,1.34.32,1.98ZM189.44,441.84h-1.36v-10.95h1.36v10.95Z"/>
    <path d="M197.56,431.86c.6.25,1.07.59,1.41,1.04s.52.96.52,1.55c0,.8-.31,1.47-.92,2-.61.53-1.41.84-2.39.94v1.98h4.19v1.14h-9.69v-1.14h4.15v-1.98c-.98-.11-1.77-.42-2.37-.94s-.9-1.19-.9-1.99c0-.58.17-1.1.52-1.55.34-.45.81-.8,1.41-1.04.6-.25,1.27-.37,2.02-.37s1.44.12,2.04.37ZM193.64,433.11c-.48.33-.73.78-.73,1.35s.24,1.04.73,1.37,1.11.5,1.89.5,1.42-.17,1.91-.5c.49-.33.73-.79.73-1.37s-.25-1.01-.74-1.35c-.49-.33-1.13-.5-1.9-.5s-1.41.17-1.89.5Z"/>
    <path class="st25" d="M59.96,458.15l-.86-.86,2.44-2.47h-8.31v-1.22h8.3l-2.43-2.44.86-.86,3.9,3.91-3.9,3.94Z"/>
    <path class="st25" d="M71.13,456.21c1.16-.04,2.22-.13,3.16-.25l.08,1.04c-.98.17-2,.28-3.07.33-1.07.05-2.2.08-3.4.08l-.13-1.12,2.02-.03v-3.26h1.33v3.21ZM73.8,450.66c0,.72-.02,1.41-.05,2.05-.04.64-.12,1.37-.25,2.19l-1.32-.12c.19-1.21.28-2.47.28-3.79h-4.12v-1.12h5.47v.79ZM76.19,453.18h1.49v1.16h-1.49v5.34h-1.36v-10.94h1.36v4.44Z"/>
    <path class="st25" d="M82.5,452.53c.43.6,1.03,1.04,1.82,1.31l-.66,1.07c-.57-.19-1.07-.48-1.49-.87s-.75-.84-.98-1.36c-.24.58-.58,1.08-1.02,1.51-.44.43-.96.74-1.57.94l-.69-1.08c.82-.28,1.45-.74,1.9-1.38s.67-1.33.67-2.07v-.09h-2.18v-1.11h5.72v1.11h-2.15v.08c0,.7.21,1.34.64,1.94ZM86.82,459.68h-1.36v-2.79h-5.88v-1.12h7.24v3.91ZM86.82,455.26h-1.36v-2.68h-1.74v-1.14h1.74v-2.7h1.36v6.51Z"/>
    <path class="st25" d="M94.86,453.31c.22.64.53,1.21.93,1.7s.89.87,1.45,1.12l-.79,1.11c-.59-.28-1.11-.69-1.55-1.24-.44-.54-.78-1.17-1.03-1.9-.25.78-.6,1.47-1.05,2.06-.45.59-.99,1.04-1.62,1.33l-.81-1.16c.58-.26,1.08-.65,1.5-1.17.42-.52.74-1.11.95-1.77s.32-1.35.32-2.07v-1.72h1.36v1.72c0,.68.11,1.34.32,1.98ZM99.34,459.7h-1.36v-10.95h1.36v10.95Z"/>
    <path class="st25" d="M103.8,457.71l-.75-1.04c1.28-.67,2.26-1.47,2.95-2.4.69-.93,1.1-2.01,1.24-3.26h-3.63v-1.14h4.99c0,3.59-1.6,6.21-4.8,7.84ZM111.41,453h1.53v1.15h-1.53v5.51h-1.35v-10.91h1.35v4.25Z"/>
    <path class="st25" d="M122.06,456.83h-1.36v-2.74h-2.07v.96h-4.97v-5.59h1.33v1.74h2.3v-1.74h1.33v1.16h2.07v-1.88h1.36v8.07ZM117.29,453.97v-1.71h-2.3v1.71h2.3ZM122.3,459.47h-7.24v-3.44h1.37v2.33h5.87v1.11ZM120.7,452.98v-1.24h-2.07v1.24h2.07Z"/>
    <path class="st25" d="M132.91,455.26h-4.16v1.04h3v3.36h-1.37v-2.27h-6.03v-1.08h3.05v-1.04h-4.15v-1.1h9.66v1.1ZM128.75,449.77h3.22v1.07h-3.13c.08.48.43.88,1.04,1.21s1.46.54,2.54.63l-.4,1.03c-.95-.08-1.76-.26-2.44-.55-.67-.29-1.18-.66-1.51-1.13-.33.46-.83.83-1.51,1.12-.68.29-1.49.48-2.44.55l-.4-1.03c1.07-.09,1.92-.3,2.54-.63.62-.33.96-.73,1.04-1.21h-3.09v-1.07h3.18v-1.03h1.35v1.03Z"/>
    <path class="st25" d="M145.49,455.88h-4.18v3.81h-1.35v-3.81h-4.14v-1.14h9.66v1.14ZM141.85,450.97c.3.43.74.8,1.3,1.11.56.31,1.22.51,1.96.62l-.52,1.11c-.9-.14-1.69-.42-2.37-.85s-1.19-.94-1.55-1.56c-.34.62-.86,1.14-1.54,1.56-.68.42-1.47.71-2.36.85l-.53-1.11c.74-.11,1.39-.31,1.96-.62.56-.31,1-.68,1.3-1.11.3-.43.46-.88.46-1.33v-.57h1.43v.57c0,.46.15.9.46,1.33Z"/>
    <path class="st25" d="M154.81,455.16h-1.36v-1.48h-2.07v.85h-4.98v-4.97h4.98v.83h2.07v-1.65h1.36v6.42ZM153.87,456.02c.64.37.96.88.96,1.55s-.32,1.18-.96,1.55-1.53.55-2.66.55-2.01-.18-2.66-.55-.96-.89-.96-1.55.32-1.18.96-1.55,1.53-.56,2.66-.56,2.01.19,2.66.56ZM147.71,453.42h2.34v-2.76h-2.34v2.76ZM149.53,456.79c-.39.18-.59.44-.59.78s.2.6.59.78c.39.18.95.26,1.68.26s1.31-.09,1.7-.26c.39-.18.59-.44.59-.78s-.2-.6-.59-.78c-.39-.18-.96-.26-1.7-.26s-1.29.09-1.68.26ZM153.45,452.56v-1.07h-2.07v1.07h2.07Z"/>
    <path class="st25" d="M163.71,450.75h-3.42v2.93c1.06,0,1.89-.04,2.5-.08s1.21-.13,1.79-.26l.15,1.12c-.66.14-1.34.23-2.03.28-.69.04-1.65.07-2.89.07h-.87v-5.17h4.77v1.11ZM167.28,459.47h-7.2v-3.65h1.35v2.54h5.85v1.11ZM166.87,451.79h1.48v1.14h-1.48v3.71h-1.35v-7.89h1.35v3.04Z"/>
    <path class="st25" d="M178.23,455.26h-4.16v1.04h3v3.36h-1.37v-2.27h-6.03v-1.08h3.05v-1.04h-4.15v-1.1h9.66v1.1ZM174.07,449.77h3.22v1.07h-3.13c.08.48.43.88,1.04,1.21s1.46.54,2.54.63l-.4,1.03c-.95-.08-1.76-.26-2.44-.55-.67-.29-1.18-.66-1.51-1.13-.33.46-.83.83-1.51,1.12-.68.29-1.49.48-2.44.55l-.4-1.03c1.07-.09,1.92-.3,2.54-.63.62-.33.96-.73,1.04-1.21h-3.09v-1.07h3.18v-1.03h1.35v1.03Z"/>
    <path class="st25" d="M186.82,453.99h-5.11v-4.57h5.11v4.57ZM190.18,456.64h-3c.04.27.21.55.5.83s.68.52,1.18.72c.5.2,1.08.34,1.73.41l-.45,1.04c-.85-.09-1.59-.29-2.22-.6-.63-.31-1.12-.7-1.45-1.16-.33.46-.82.84-1.45,1.16-.63.31-1.38.51-2.23.6l-.45-1.04c.65-.06,1.23-.19,1.74-.39.51-.2.91-.44,1.2-.72.29-.28.46-.56.5-.85h-3.03v-1.04h3.04v-.94h1.37v.94h3.03v1.04ZM183.04,452.9h2.46v-2.41h-2.46v2.41ZM189.98,454.95h-1.33v-6.21h1.33v6.21Z"/>
    <path class="st25" d="M203.39,458.28h-9.66v-1.12h3.54v-3.8h1.35v3.8h4.77v1.12ZM202.41,450.78c0,.93-.02,1.78-.07,2.53-.05.75-.17,1.64-.35,2.65l-1.36-.15c.19-.93.3-1.77.34-2.5.04-.74.07-1.56.07-2.46h-6.29v-1.11h7.66v1.04Z"/>
    <path class="st25" d="M208.29,452.59c.42.56,1.03.97,1.82,1.23l-.62,1.08c-1.16-.37-2-1.08-2.5-2.11-.24.58-.58,1.09-1.02,1.51-.44.43-.98.75-1.59.96l-.67-1.11c.83-.28,1.46-.74,1.91-1.36.44-.63.67-1.31.67-2.06v-.12h-2.22v-1.11h5.75v1.11h-2.15v.11c0,.69.21,1.31.63,1.88ZM211.35,456.04c.63.37.94.88.94,1.54s-.31,1.16-.94,1.53-1.5.55-2.61.55-1.99-.18-2.63-.55c-.64-.37-.96-.88-.96-1.53s.32-1.17.96-1.54,1.52-.55,2.64-.55,1.98.18,2.61.55ZM207.08,456.84c-.39.17-.58.42-.58.75s.19.58.58.75.94.26,1.67.26,1.26-.09,1.65-.26c.38-.17.57-.42.57-.75s-.19-.57-.57-.75c-.38-.17-.93-.26-1.65-.26s-1.28.09-1.67.26ZM212.19,451.35h1.45v1.14h-1.45v2.77h-1.36v-6.51h1.36v2.6Z"/>
    <path class="st25" d="M216.89,453.66c1.41-.03,2.58-.06,3.52-.11s1.86-.12,2.75-.22l.08.99c-.83.14-1.71.25-2.66.32v2.1h-1.33v-2.02c-.85.04-1.77.05-2.75.05l-.16-1.1h.54ZM221.17,449.38c.4.16.71.39.93.69.22.3.33.63.33,1.01,0,.58-.24,1.05-.73,1.4-.48.35-1.12.53-1.9.53s-1.42-.18-1.91-.53c-.49-.35-.73-.82-.73-1.4,0-.38.11-.71.34-1.01.23-.29.54-.52.94-.69s.86-.25,1.37-.25.97.08,1.37.25ZM225.54,459.47h-7.8v-3.24h1.36v2.13h6.44v1.11ZM218.8,450.4c-.25.16-.38.39-.38.68s.13.5.38.67c.25.16.58.24,1,.24s.73-.08.98-.24.37-.39.37-.67-.12-.52-.37-.68-.57-.25-.98-.25-.75.08-1,.25ZM225.3,457.03h-1.35v-.94h-2.07v-.95h2.07v-6.38h1.35v8.27Z"/>
    <path class="st25" d="M230.99,449.82c.44.23.78.56,1.03.98.25.42.38.89.38,1.41s-.13,1-.38,1.42c-.25.42-.59.74-1.03.98s-.92.35-1.46.35-1.02-.12-1.46-.35-.78-.56-1.03-.98c-.25-.42-.38-.89-.38-1.42s.13-.99.38-1.4.6-.74,1.04-.98.93-.36,1.45-.36,1.02.12,1.46.35ZM228.42,451.09c-.29.28-.44.65-.44,1.11s.15.84.44,1.12c.29.28.66.42,1.11.42s.81-.14,1.1-.42c.29-.28.44-.66.44-1.12s-.15-.83-.44-1.11-.66-.42-1.1-.42-.82.14-1.11.42ZM235.59,459.47h-7.31v-3.62h1.36v2.51h5.95v1.11ZM235.31,456.64h-1.36v-7.89h1.36v7.89Z"/>
    <path class="st25" d="M241.09,450.01c.42.32.75.77.98,1.35.24.59.36,1.27.36,2.04s-.12,1.46-.36,2.04-.57,1.04-.98,1.35-.89.48-1.42.48-1.02-.16-1.44-.48-.75-.77-.99-1.35-.36-1.27-.36-2.04.12-1.46.36-2.04c.24-.58.57-1.04.99-1.35.42-.32.9-.48,1.44-.48s1,.16,1.42.48ZM238.59,451.47c-.26.46-.4,1.11-.4,1.94s.13,1.46.4,1.92c.26.46.63.69,1.08.69s.79-.23,1.06-.69c.26-.46.4-1.1.4-1.92s-.13-1.46-.4-1.93c-.26-.47-.62-.7-1.06-.7s-.82.23-1.08.69ZM245.38,459.7h-1.36v-10.95h1.36v10.95Z"/>
    <path class="st25" d="M251.99,453.79v-.96h-1.9v-3.57h5.09v1.11h-3.74v1.39h3.81v1.07h-1.9v.9c.9-.04,1.76-.12,2.58-.24l.09.96c-1,.18-2.05.31-3.12.36-1.08.06-2.26.09-3.55.1l-.17-1.1c1.22,0,2.16,0,2.83-.03ZM252.17,456.45h4.49v-.91h1.32v4.02h-7.14v-4.02h1.32v.91ZM256.67,458.44v-.94h-4.49v.94h4.49ZM257.99,455.07h-1.36v-6.32h1.36v6.32Z"/>
    <path class="st25" d="M261.17,455.77c1.66-.03,3.2-.19,4.64-.49l.17,1.15c-1.61.34-3.36.52-5.25.52h-.92v-7.15h1.36v5.97ZM268.08,459.68h-1.35v-10.94h1.35v10.94Z"/>
    <path class="st25" d="M274.71,450.9h-3.62v4.98c.86,0,1.63-.04,2.31-.09.68-.05,1.36-.14,2.03-.26l.16,1.18c-.77.13-1.52.22-2.27.26-.75.04-1.65.07-2.7.07h-.89v-7.25h4.97v1.12ZM277.62,452.88h1.61v1.12h-1.61v5.69h-1.35v-10.95h1.35v4.14Z"/>
  </g>
  <g>
    <g>
      <text class="st6" transform="translate(57.26 179.22)"><tspan x="0" y="0">공기압(kgf/㎠)</tspan></text>
      <text class="st0" transform="translate(70.89 202.76)"><tspan x="0" y="0">2.0 ~ 2.5</tspan><tspan x="1.02" y="25">3.0 ~3.5</tspan><tspan x="1.02" y="50">4.0~ 4.5</tspan><tspan x="0" y="75">4.5 ~ 5.5</tspan><tspan x="1.02" y="100">5.5 ~6.0</tspan></text>
    </g>
    <g>
      <text class="st0" transform="translate(193.76 202.76)"><tspan x="0" y="0">8 ~12</tspan><tspan x="-4.05" y="25">13 ~ 15</tspan><tspan x="-4.05" y="50">18 ~ 19</tspan><tspan x="-4.05" y="75">20 ~ 21</tspan><tspan x="-4.05" y="100">22 ~ 25</tspan></text>
      <text class="st6" transform="translate(177.44 179.22)"><tspan x="0" y="0">적정중량(Ton)</tspan></text>
    </g>
    <text class="st6" transform="translate(375.89 179.22)"><tspan x="0" y="0">비고</tspan></text>
    <line class="st22" x1="33.93" y1="186.89" x2="502.68" y2="186.89"/>
    <line class="st22" x1="33.93" y1="211.62" x2="266.04" y2="211.62"/>
    <line class="st22" x1="33.93" y1="236.36" x2="266.04" y2="236.36"/>
    <line class="st22" x1="33.93" y1="261.09" x2="266.04" y2="261.09"/>
    <line class="st22" x1="33.93" y1="285.83" x2="266.04" y2="285.83"/>
    <line class="st22" x1="33.93" y1="310.56" x2="502.68" y2="310.56"/>
    <line class="st22" x1="502.68" y1="162.87" x2="502.68" y2="310.48"/>
    <line class="st22" x1="33.94" y1="162.87" x2="33.94" y2="310.48"/>
    <line class="st22" x1="266.04" y1="162.87" x2="266.04" y2="310.48"/>
    <line class="st22" x1="149.99" y1="162.87" x2="149.99" y2="310.48"/>
    <polyline class="st22" points="33.94 162.8 33.93 162.15 502.68 162.15"/>
    <path class="st22" d="M33.94,310.48"/>
    <g>
      <text class="st0" transform="translate(286.72 203.01)"><tspan x="0" y="0">화물 100% 균등 적재 기준 참고값, 차량별 편차 있음</tspan></text>
      <circle cx="279.44" cy="199.47" r="2.17"/>
    </g>
    <g>
      <text class="st0" transform="translate(286.72 242.42)"><tspan x="0" y="0">적재 위치 및 편중 하중에 따라 자동하강장치 작동이</tspan><tspan x="0" y="19">지연되거나 미작동할 수 있습니다</tspan></text>
      <circle cx="279.44" cy="238.19" r="2.17"/>
    </g>
    <g>
      <text class="st0" transform="translate(286.72 294.76)"><tspan x="0" y="0">재시동(리셋) 후 반드시 재확인하십시오</tspan></text>
      <circle cx="279.44" cy="291.22" r="2.17"/>
    </g>
  </g>
</svg>